<?xml version="1.0" encoding="utf-8"?>
<!-- Generator: Adobe Illustrator 18.1.1, SVG Export Plug-In . SVG Version: 6.00 Build 0)  -->
<svg version="1.1" id="Layer_1" xmlns="http://www.w3.org/2000/svg" xmlns:xlink="http://www.w3.org/1999/xlink" x="0px" y="0px"
	 viewBox="488 360 48 48" enable-background="new 488 360 48 48" xml:space="preserve">
<g>
	<g>
		<g>
			<polygon fill="#3A8F7A" points="527.3,407.4 496.7,407.4 496.7,367 501.5,367 501.5,368.9 498.5,368.9 498.5,405.5 525.5,405.5 
				525.5,368.9 522.5,368.9 522.5,367 527.3,367 			"/>
			<path fill="#3A8F7A" d="M523.3,371.8h-22.6v-3.4c0-1.9,1.5-3.4,3.4-3.4h3.9v-0.4c0-2.2,1.8-4,4-4s4,1.8,4,4v0.4h3.9
				c1.9,0,3.4,1.5,3.4,3.4L523.3,371.8L523.3,371.8z M502.5,369.9h18.9v-1.5c0-0.9-0.7-1.5-1.5-1.5h-5.8v-2.2c0-1.2-1-2.1-2.1-2.1
				c-1.2,0-2.1,1-2.1,2.1v2.2h-5.8c-0.9,0-1.5,0.7-1.5,1.5L502.5,369.9L502.5,369.9z"/>
		</g>
		<g>
			<path fill="#3A8F7A" d="M520.6,379.1h-12c-0.4,0-0.7,0.3-0.7,0.7s0.3,0.7,0.7,0.7h12c0.4,0,0.7-0.3,0.7-0.7
				S520.9,379.1,520.6,379.1L520.6,379.1z M520.6,379.1"/>
			<path fill="#3A8F7A" d="M520.6,383.2h-12c-0.4,0-0.7,0.3-0.7,0.7c0,0.4,0.3,0.7,0.7,0.7h12c0.4,0,0.7-0.3,0.7-0.7
				C521.2,383.5,520.9,383.2,520.6,383.2L520.6,383.2z M520.6,383.2"/>
			<path fill="#3A8F7A" d="M520.6,387.2h-12c-0.4,0-0.7,0.3-0.7,0.7c0,0.4,0.3,0.7,0.7,0.7h12c0.4,0,0.7-0.3,0.7-0.7
				C521.2,387.5,520.9,387.2,520.6,387.2L520.6,387.2z M520.6,387.2"/>
			<path fill="#3A8F7A" d="M520.6,391.3h-12c-0.4,0-0.7,0.3-0.7,0.7c0,0.4,0.3,0.7,0.7,0.7h12c0.4,0,0.7-0.3,0.7-0.7
				C521.2,391.6,520.9,391.3,520.6,391.3L520.6,391.3z M520.6,391.3"/>
		</g>
		<g>
			<path fill="#3A8F7A" d="M504.9,379.1h-1.5c-0.4,0-0.7,0.3-0.7,0.7s0.3,0.7,0.7,0.7h1.5c0.4,0,0.7-0.3,0.7-0.7
				S505.3,379.1,504.9,379.1L504.9,379.1z M504.9,379.1"/>
			<path fill="#3A8F7A" d="M504.9,383.2h-1.5c-0.4,0-0.7,0.3-0.7,0.7c0,0.4,0.3,0.7,0.7,0.7h1.5c0.4,0,0.7-0.3,0.7-0.7
				C505.6,383.5,505.3,383.2,504.9,383.2L504.9,383.2z M504.9,383.2"/>
			<path fill="#3A8F7A" d="M504.9,387.2h-1.5c-0.4,0-0.7,0.3-0.7,0.7c0,0.4,0.3,0.7,0.7,0.7h1.5c0.4,0,0.7-0.3,0.7-0.7
				C505.6,387.5,505.3,387.2,504.9,387.2L504.9,387.2z M504.9,387.2"/>
			<path fill="#3A8F7A" d="M504.9,391.3h-1.5c-0.4,0-0.7,0.3-0.7,0.7c0,0.4,0.3,0.7,0.7,0.7h1.5c0.4,0,0.7-0.3,0.7-0.7
				C505.6,391.6,505.3,391.3,504.9,391.3L504.9,391.3z M504.9,391.3"/>
		</g>
	</g>
</g>
</svg>
