<?xml version="1.0" encoding="utf-8"?>
<!-- Generator: Adobe Illustrator 18.1.1, SVG Export Plug-In . SVG Version: 6.00 Build 0)  -->
<svg version="1.1" id="Layer_1" xmlns="http://www.w3.org/2000/svg" xmlns:xlink="http://www.w3.org/1999/xlink" x="0px" y="0px"
	 viewBox="488 360 48 48" enable-background="new 488 360 48 48" xml:space="preserve">
<path fill="#495559" d="M525.5,402.4h-26.9c-2.7,0-4.9-2.2-4.9-4.9v-26.9c0-2.7,2.2-4.9,4.9-4.9h26.9c2.7,0,4.9,2.2,4.9,4.9v26.9
	C530.4,400.2,528.2,402.4,525.5,402.4z M498.5,367c-1.9,0-3.5,1.6-3.5,3.5v26.9c0,1.9,1.6,3.5,3.5,3.5h26.9c1.9,0,3.5-1.6,3.5-3.5
	v-26.9c0-1.9-1.6-3.5-3.5-3.5H498.5z"/>
</svg>
