<?xml version="1.0" encoding="utf-8"?>
<!-- Generator: Adobe Illustrator 18.1.1, SVG Export Plug-In . SVG Version: 6.00 Build 0)  -->
<svg version="1.1" id="Layer_1" xmlns="http://www.w3.org/2000/svg" xmlns:xlink="http://www.w3.org/1999/xlink" x="0px" y="0px"
	 viewBox="488 360 48 48" enable-background="new 488 360 48 48" xml:space="preserve">
<g>
	<g>
		<path fill="#6D810C" d="M532.4,366.1c-2.8-3.3-6.1-5-9.8-5c-4.6,0-8.6,2.5-10.8,4.2c-1.8-1.7-5.1-4.1-9.4-4.1
			c-3.6,0-7,1.7-10.1,4.9c-10,10.4,2.1,23,7.3,28.4c0.6,0.7,1.2,1.2,1.6,1.6c3,3.4,6.7,7.6,8.6,9.8l0.1,0.1c0.4,0.5,1,0.8,1.7,0.8
			c0.1,0,0.1,0,0.2,0c0.7-0.1,1.3-0.4,1.7-1c0,0,3.1-4.9,8.6-9.4c3.8-3.1,12.8-11.4,13.6-20.4C535.9,372.4,534.9,369,532.4,366.1z
			 M520.5,394.8c-5.6,4.6-8.9,9.7-9,10c-0.3-0.3-5-5.8-8.7-10c-1.1-1.3-3.3-3.4-5.5-6h1.2c0.4,0,0.8-0.3,1-0.7l3.6-8.3l3.6,13.7
			c0.1,0.5,0.5,0.8,1,0.8c0,0,0,0,0,0c0.5,0,0.9-0.3,1-0.7l3.7-10.8l1.5,3.3c0.2,0.4,0.6,0.6,1,0.6h13.3
			C525.7,390.2,522.6,393.1,520.5,394.8z M529.9,384.6h-14.2l-2.4-5.2c-0.2-0.4-0.6-0.7-1.1-0.6c-0.4,0-0.8,0.3-1,0.7l-3.4,9.9
			l-3.4-13.3c-0.1-0.5-0.5-0.8-1-0.8c-0.5,0-0.9,0.2-1.1,0.7l-4.6,10.6h-2.3c-4.3-5.6-7.5-12.8-1.6-18.9c3.1-3.2,6-4.2,8.5-4.2
			c5.5,0,9.1,4.7,9.3,4.9c0.3-0.3,5.1-5.1,11-5.1c2.7,0,5.5,1.1,8.1,4.2C535.3,373,533.4,379.3,529.9,384.6z"/>
	</g>
</g>
</svg>
