<?xml version="1.0" encoding="utf-8"?>
<!-- Generator: Adobe Illustrator 18.1.1, SVG Export Plug-In . SVG Version: 6.00 Build 0)  -->
<svg version="1.1" id="Layer_1" xmlns="http://www.w3.org/2000/svg" xmlns:xlink="http://www.w3.org/1999/xlink" x="0px" y="0px"
	 viewBox="0 0 48 48" enable-background="new 0 0 48 48" xml:space="preserve">
<g>
	<path fill="#84979D" d="M38.3,0.7c-0.2-0.2-0.4-0.3-0.7-0.3l-27.1,0c-0.3,0-0.5,0.1-0.7,0.3C9.5,0.9,9.4,1.2,9.4,1.5l0,1.3l0,20.2
		c0,0.1,0,0.1,0,0.1v0.1c0,7,6.1,12.5,13.5,13c0,0,0.3,0,0.4,0c0,0,0,1,0,2.3c-1.3,0.3-2.4,1.5-2.4,2.9c0,1.4,1,2.6,2.3,2.9
		c0,0,0,0,0,0v2.3c0,0.6,0.3,0.9,0.7,0.9c0.4,0,0.7-0.3,0.7-0.9v-2.3c0,0,0,0,0,0c1.3-0.3,2.2-1.5,2.2-2.9c0-1.4-0.9-2.5-2.2-2.9
		c0-1.4,0-2.4,0-2.4c0,0,0.3,0,0.4,0c7.5-0.5,13.5-6,13.5-13V1.4C38.6,1.2,38.5,0.9,38.3,0.7z M25.7,41.5c0,0.9-0.7,1.7-1.7,1.7
		s-1.7-0.7-1.7-1.7c0-0.9,0.7-1.7,1.7-1.7S25.7,40.6,25.7,41.5z M37.2,23.2c0,5.7-5.7,11.2-12.3,11.6c-0.2,0-0.7,0-0.9,0
		c-0.2,0-0.8,0-0.9,0c-6.6-0.4-12.3-5.9-12.3-11.6v0c0,0,0,0,0,0l0,0l0-20.3V1.9l26.4,0V23.2z"/>
	<path fill="#84979D" d="M17.3,11.6h7.5c0.4,0,0.7-0.3,0.7-0.7v0c0-0.4-0.3-0.7-0.7-0.7h-7.5c-0.4,0-0.7,0.3-0.7,0.7v0
		C16.5,11.3,16.9,11.6,17.3,11.6z"/>
	<path fill="#84979D" d="M17.3,16h7.5c0.4,0,0.7-0.3,0.7-0.7v0c0-0.4-0.3-0.7-0.7-0.7h-7.5c-0.4,0-0.7,0.3-0.7,0.7v0
		C16.5,15.7,16.9,16,17.3,16z"/>
	<path fill="#84979D" d="M17.3,20.4h7.5c0.4,0,0.7-0.3,0.7-0.7v0c0-0.4-0.3-0.7-0.7-0.7h-7.5c-0.4,0-0.7,0.3-0.7,0.7v0
		C16.5,20,16.9,20.4,17.3,20.4z"/>
	<path fill="#84979D" d="M17.3,24.7h7.5c0.4,0,0.7-0.3,0.7-0.7v0c0-0.4-0.3-0.7-0.7-0.7h-7.5c-0.4,0-0.7,0.3-0.7,0.7v0
		C16.5,24.4,16.9,24.7,17.3,24.7z"/>
</g>
</svg>
