<?xml version="1.0" encoding="utf-8"?>
<!-- Generator: Adobe Illustrator 18.1.1, SVG Export Plug-In . SVG Version: 6.00 Build 0)  -->
<svg version="1.1" id="Layer_1" xmlns="http://www.w3.org/2000/svg" xmlns:xlink="http://www.w3.org/1999/xlink" x="0px" y="0px"
	 viewBox="488 360 48 48" enable-background="new 488 360 48 48" xml:space="preserve">
<g>
	<g>
		<path fill="#84979D" d="M533.6,364.8h-43.2c-1.1,0-2-0.9-2-2l0,0c0-1.1,0.9-2,2-2h43.2c1.1,0,2,0.9,2,2l0,0
			C535.6,363.9,534.7,364.8,533.6,364.8z"/>
		<path fill="#84979D" d="M533.6,386h-43.2c-1.1,0-2-0.9-2-2l0,0c0-1.1,0.9-2,2-2h43.2c1.1,0,2,0.9,2,2l0,0
			C535.6,385.1,534.7,386,533.6,386z"/>
		<path fill="#84979D" d="M533.6,407.3h-43.2c-1.1,0-2-0.9-2-2l0,0c0-1.1,0.9-2,2-2h43.2c1.1,0,2,0.9,2,2l0,0
			C535.6,406.4,534.7,407.3,533.6,407.3z"/>
	</g>
</g>
</svg>
