<?xml version="1.0" encoding="utf-8"?>
<!-- Generator: Adobe Illustrator 18.1.1, SVG Export Plug-In . SVG Version: 6.00 Build 0)  -->
<svg version="1.1" id="Layer_1" xmlns="http://www.w3.org/2000/svg" xmlns:xlink="http://www.w3.org/1999/xlink" x="0px" y="0px"
	 viewBox="0 0 48 48" enable-background="new 0 0 48 48" xml:space="preserve">
<g>
	<path fill="#84979D" d="M33.4,3.2l-2.5,2.5c0,0,0,0,0,0c0,0,0,0,0,0L1.1,35.5c-0.2,0.2-0.2,0.4-0.2,0.6v10.1c0,0.5,0.4,0.8,0.8,0.8
		l10.1,0c0.2,0,0.4-0.1,0.6-0.2l29.8-29.8l2.5-2.5c3.1-3.1,3.1-8.2,0-11.3C41.7,0.2,36.5,0.2,33.4,3.2z M2.6,45.4l0-7.3l7.3,7.3
		L2.6,45.4z M11.9,45.1l-9-9L31.5,7.5l9,9L11.9,45.1z M41.6,15.3l-9-9L34,5l9,9L41.6,15.3z M44.1,12.7l-8.9-8.9
		c2.4-1.9,6.1-1.6,8.3,0.5C45.9,6.6,46,10.2,44.1,12.7z"/>
</g>
</svg>
