<?xml version="1.0" encoding="utf-8"?>
<!-- Generator: Adobe Illustrator 18.1.1, SVG Export Plug-In . SVG Version: 6.00 Build 0)  -->
<svg version="1.1" id="Layer_1" xmlns="http://www.w3.org/2000/svg" xmlns:xlink="http://www.w3.org/1999/xlink" x="0px" y="0px"
	 viewBox="0 0 48 48" enable-background="new 0 0 48 48" xml:space="preserve">
<g>
	<path fill="#8CA0A7" d="M24,47.5l-0.6-0.7c-0.1-0.1-9.5-11.3-14.5-22.7c-1.1-2.2-1.6-4.6-1.6-7.1C7.3,7.9,14.8,0.5,24,0.5
		c9.2,0,16.7,7.4,16.7,16.6c0,2.5-0.5,4.8-1.6,7.1c-5,11.4-14.3,22.6-14.4,22.7L24,47.5z M24,2C15.7,2,8.9,8.8,8.9,17
		c0,2.3,0.5,4.4,1.4,6.4c4.2,9.6,11.5,19,13.6,21.6c2.1-2.7,9.4-12.1,13.6-21.6c1-2.1,1.5-4.2,1.5-6.4C39.1,8.8,32.3,2,24,2z"/>
	<path fill="#8CA0A7" d="M24,25.6c-4.8,0-8.7-3.9-8.7-8.7c0-4.8,3.9-8.7,8.7-8.7c4.8,0,8.7,3.9,8.7,8.7C32.7,21.6,28.8,25.6,24,25.6
		z M24,9.7c-3.9,0-7.1,3.2-7.1,7.1c0,3.9,3.2,7.1,7.1,7.1c3.9,0,7.1-3.2,7.1-7.1C31.1,12.9,27.9,9.7,24,9.7z"/>
</g>
</svg>
