<?xml version="1.0" encoding="utf-8"?>
<!-- Generator: Adobe Illustrator 18.1.1, SVG Export Plug-In . SVG Version: 6.00 Build 0)  -->
<svg version="1.1" id="Layer_1" xmlns="http://www.w3.org/2000/svg" xmlns:xlink="http://www.w3.org/1999/xlink" x="0px" y="0px"
	 viewBox="488 360 48 48" enable-background="new 488 360 48 48" xml:space="preserve">
<g>
	<path fill="#FFFFFF" d="M504,379.8v-9.2c0-4.4,3.6-8,8-8c4.4,0,8,3.6,8,8v9.2h1.9v-9.2c0-5.4-4.4-9.9-9.9-9.9s-9.9,4.4-9.9,9.9v9.2
		H504z"/>
	<path fill="#FFFFFF" d="M524,407.3h-24c-1.5,0-2.8-1.3-2.8-2.8v-20.1c0-1.5,1.3-2.8,2.8-2.8h24c1.5,0,2.8,1.3,2.8,2.8v20.1
		C526.8,406,525.5,407.3,524,407.3z M500,383.5c-0.5,0-0.9,0.4-0.9,0.9v20.1c0,0.5,0.4,0.9,0.9,0.9h24c0.5,0,0.9-0.4,0.9-0.9v-20.1
		c0-0.5-0.4-0.9-0.9-0.9H500z"/>
	<path fill="#FFFFFF" d="M514.8,390.5c0-1.5-1.3-2.8-2.8-2.8s-2.8,1.3-2.8,2.8c0,1.2,0.8,2.2,1.9,2.6v3.4c0,0.5,0.4,0.9,0.9,0.9
		c0.5,0,0.9-0.4,0.9-0.9v-3.4C514,392.8,514.8,391.7,514.8,390.5z M512,391.5c-0.5,0-0.9-0.4-0.9-0.9c0-0.5,0.4-0.9,0.9-0.9
		s0.9,0.4,0.9,0.9C512.9,391,512.5,391.5,512,391.5z"/>
</g>
</svg>
