<?xml version="1.0" encoding="utf-8"?>
<!-- Generator: Adobe Illustrator 18.1.1, SVG Export Plug-In . SVG Version: 6.00 Build 0)  -->
<svg version="1.1" id="Layer_1" xmlns="http://www.w3.org/2000/svg" xmlns:xlink="http://www.w3.org/1999/xlink" x="0px" y="0px"
	 viewBox="488 360 48 48" enable-background="new 488 360 48 48" xml:space="preserve">
<g>
	<path fill="#FFFFFF" d="M503.3,360.3c-4.8,0-8.8,3.9-8.8,8.8c0,4.8,3.9,8.8,8.8,8.8c4.8,0,8.8-3.9,8.8-8.8
		C512.1,364.3,508.1,360.3,503.3,360.3z M503.3,376.5c-4.1,0-7.4-3.3-7.4-7.4c0-4.1,3.3-7.4,7.4-7.4s7.4,3.3,7.4,7.4
		C510.7,373.2,507.4,376.5,503.3,376.5z"/>
	<path fill="#FFFFFF" d="M520.3,407.7c-8,0-14.5-6.5-14.5-14.5c0-8,6.5-14.5,14.5-14.5s14.5,6.5,14.5,14.5
		C534.7,401.2,528.2,407.7,520.3,407.7z M520.3,380c-7.3,0-13.2,5.9-13.2,13.2c0,7.3,5.9,13.2,13.2,13.2s13.2-5.9,13.2-13.2
		C533.5,385.9,527.6,380,520.3,380z"/>
	<g>
		<g>
			<path fill="#FFFFFF" d="M519.6,400.6v-14.8c0-0.2,0.2-0.4,0.4-0.4l0.5,0c0.2,0,0.4,0.2,0.4,0.4v14.8c0,0.2-0.2,0.4-0.4,0.4H520
				C519.8,401.1,519.6,400.9,519.6,400.6z"/>
			<path fill="#FFFFFF" d="M527.7,393.9h-14.8c-0.2,0-0.4-0.2-0.4-0.4V393c0-0.2,0.2-0.4,0.4-0.4h14.8c0.2,0,0.4,0.2,0.4,0.4v0.5
				C528.1,393.7,527.9,393.9,527.7,393.9z"/>
		</g>
	</g>
	<g>
		<path fill="#FFFFFF" d="M503.3,395.7c-4.5,0-9-1.5-12.6-4.3v-4.9c0.1-0.3,0.6-1.6,2.1-2.8c1.5-1.3,4.5-2.8,9.7-2.8
			c3.6,0,6.3,0.5,8.3,1.3c0.4-0.4,0.9-0.7,1.3-1c-2.3-0.9-5.5-1.7-9.6-1.7c-5.6,0-8.9,1.7-10.6,3.1c-2.1,1.7-2.6,3.5-2.6,3.8v5.6
			l0.3,0.2c3.9,3.1,8.8,4.8,13.8,4.8c1,0,2-0.1,3-0.2c-0.1-0.5-0.2-0.9-0.3-1.4C505.1,395.6,504.2,395.7,503.3,395.7z"/>
		<path fill="#FFFFFF" d="M512.1,382.9c-0.4-0.2-0.8-0.4-1.3-0.5c-3.1,2.7-5,6.6-5,10.9c0,0.8,0.1,1.6,0.2,2.3
			c0.4-0.1,0.8-0.1,1.3-0.2c-0.1-0.7-0.2-1.4-0.2-2.1C507.1,389,509.1,385.3,512.1,382.9z"/>
		<path fill="#FFFFFF" d="M520.3,378.8c-3,0-5.8,0.9-8.2,2.5c0.5,0.2,0.9,0.4,1.4,0.6c2-1.2,4.3-1.9,6.8-1.9
			c7.3,0,13.2,5.9,13.2,13.2c0,7.3-5.9,13.2-13.2,13.2c-6.1,0-11.2-4.1-12.7-9.7c-0.4,0.1-0.8,0.2-1.3,0.2c1.6,6.2,7.3,10.8,14,10.8
			c8,0,14.5-6.5,14.5-14.5C534.7,385.2,528.2,378.8,520.3,378.8z"/>
	</g>
</g>
</svg>
