<?xml version="1.0" encoding="utf-8"?>
<!-- Generator: Adobe Illustrator 18.1.1, SVG Export Plug-In . SVG Version: 6.00 Build 0)  -->
<svg version="1.1" id="Layer_1" xmlns="http://www.w3.org/2000/svg" xmlns:xlink="http://www.w3.org/1999/xlink" x="0px" y="0px"
	 viewBox="0 0 1024 768" enable-background="new 0 0 1024 768" xml:space="preserve">
<path fill="#495559" d="M692.8,316.8c-22.8,0-42.3,2.1-59.1,5.5c-0.2,0.3-0.3,0.6-0.5,1c6.3-13.1,10.6-27.4,12.3-42.3
	c0,0.2,0,0.3,0,0.5c17,10.3,37,16.2,58.5,16.2c62.4,0,112-49.6,112-112s-49.6-112-112-112c-53.6,0-97.8,36.6-109.2,86.5
	c-22.9-18.1-51.7-29-82.8-29s-59.9,10.9-82.8,29c-11.4-49.9-55.5-86.5-109.2-86.5c-62.4,0-112,49.6-112,112s49.6,112,112,112
	c21.5,0,41.6-5.9,58.5-16.2c0-0.2,0-0.3,0-0.5c1.9,16.1,6.7,31.4,13.8,45.4c-0.1-0.2-0.3-0.5-0.4-0.7c-23.2-5.4-50.7-8.8-83.1-8.8
	c-72,0-112,20.8-134.4,38.4c-25.6,20.8-33.6,43.2-33.6,49.6v70.4l4.8,3.2c43.7,35.2,97.2,55.5,152,59.9v79.3l4.8,3.2
	c59.2,48,134.4,73.6,209.6,73.6c76.8,0,148.8-25.6,208-73.6l4.8-3.2v-79.2c56.3-4,109.4-24.2,153.6-58.4l1.6-3.2v-83.2
	C880,377.6,830.4,316.8,692.8,316.8z M646.4,265.8c0-0.1,0-0.2,0-0.2c0,0,0,0,0,0C646.4,265.7,646.4,265.8,646.4,265.8z M704,94.4
	c51.2,0,91.2,40,91.2,91.2s-41.6,91.2-91.2,91.2c-22.2,0-42.3-7.5-57.9-20.2c-2-30-14.1-57.5-32.9-79C617.2,130.3,657,94.4,704,94.4
	z M632.7,324.2c-1.8,3.6-3.7,7.1-5.7,10.5C629.1,331.2,631,327.7,632.7,324.2z M512,153.6c62.4,0,112,51.2,112,112
	s-51.2,112-112,112s-112-51.2-112-112C400,204.8,449.6,153.6,512,153.6z M377.6,265.6C377.6,265.6,377.6,265.6,377.6,265.6
	c0,0.1,0,0.1,0,0.2C377.6,265.8,377.6,265.7,377.6,265.6z M377.9,256c-15.9,13-36.1,20.8-57.9,20.8c-51.2,0-91.2-40-91.2-91.2
	s41.6-91.2,91.2-91.2c47,0,86.8,35.9,90.8,83.2C392.2,199,380.1,226.2,377.9,256z M397,334.7c-1.5-2.5-2.9-5-4.2-7.5
	C394.1,329.7,395.5,332.2,397,334.7z M704,609.6c-56,41.6-121.6,64-192,64c-68.8,0-139.2-24-193.6-65.6v-73.6
	c1.6-4.8,9.6-24,32-43.2c24-19.2,68.8-41.6,148.8-41.6c145.6,0,198.4,59.2,204.8,72V609.6z M860.8,465.6
	c-39.8,31.3-85.9,48.6-136,52.1c-1.3-16.7-49-75.6-176-88.2c0,0,0,0,0,0v-24.8c0-0.8,1.7-5.4,5.9-11.9c-8.7,1.9-21.8,4.6-28.9,6.3
	c-0.7,2.4-1,4.3-1,5.5v23c0,0,0,0,0,0c-8.2-0.4-16.8-0.6-25.6-0.6c-1.1,0-2.1,0-3.2,0V399c-4.7-2.7-20.6-4.3-21.1-4.3
	c0.1,0.2,0.2,0.3,0.3,0.5v32.7c-71.7,4.2-114.5,26.9-137.6,45.7c-19.2,16.3-29.8,32.7-35.2,44.2c0,0,0,0,0,0
	c-50-3.5-99.1-22.1-139.2-52.2v-60.8c0-1.6,6.4-17.6,25.6-33.6c19.2-14.4,54.4-33.6,120-33.6c43.2,0,77,6.5,101.6,14.8
	c-2.2-2.6-5.1-5.6-7.1-8.3C427.8,377.8,467.6,400,512,400c42.8,0,81.3-20.6,106-52.2c-0.3,0.4-0.9,0.9-1.2,1.4
	c19.4-6.6,44.8-11.5,77.6-11.5c124.8,0,163.2,51.2,166.4,57.6V465.6z M620.6,344.3c-0.5,0.7-1,1.3-1.4,1.9
	C619.6,345.6,620.1,344.9,620.6,344.3z"/>
</svg>
