<?xml version="1.0" encoding="utf-8"?>
<!-- Generator: Adobe Illustrator 18.1.1, SVG Export Plug-In . SVG Version: 6.00 Build 0)  -->
<svg version="1.1" id="Layer_1" xmlns="http://www.w3.org/2000/svg" xmlns:xlink="http://www.w3.org/1999/xlink" x="0px" y="0px"
	 viewBox="488 360 48 48" enable-background="new 488 360 48 48" xml:space="preserve">
<path fill="#FFFFFF" d="M532.2,366.2c0.1-0.2,0.1-0.4,0.1-0.7c0-4.1-13.3-5.2-20.4-5.2c-7,0-20.4,1.1-20.4,5.2
	c0,0.2,0.1,0.5,0.1,0.7c-0.1-0.2-0.1-0.4-0.1-0.7v3.4c0,0.2,0.1,0.4,0.2,0.6l15.2,15.1c0.5,0.5,0.8,0.8,0.8,1.6v20.6
	c0,0.4,0.4,0.8,0.8,0.8l6.5,0c0,0,0,0,0,0c0.2,0,0.4-0.1,0.6-0.2c0.2-0.2,0.2-0.4,0.2-0.6v-20.7c0-0.7,0.3-1.1,0.8-1.6l15.2-15.2
	c0.2-0.2,0.2-0.4,0.2-0.6v-3.3C532.4,365.7,532.3,366,532.2,366.2z M532.1,366.5c-0.1,0.1-0.1,0.2-0.2,0.3
	C532,366.7,532,366.6,532.1,366.5z M512,362c12.1,0,18.7,2.3,18.7,3.5s-6.6,3.5-18.7,3.5c-12.1,0-18.7-2.3-18.7-3.5
	S499.9,362,512,362z M492.1,366.8c-0.1-0.1-0.1-0.2-0.2-0.3C492,366.6,492,366.7,492.1,366.8z M492.5,367.2c0,0,0.1,0.1,0.1,0.1
	C492.6,367.2,492.6,367.2,492.5,367.2z M530.7,368.4l-15,15c-0.6,0.6-1.3,1.3-1.3,2.7V406l-4.9,0v-19.8c0-1.5-0.7-2.2-1.3-2.8
	l-15-14.9v-0.8c0,0,0,0,0,0c3.8,2.3,13.2,3,18.7,3c5.6,0,15-0.7,18.7-3c0,0,0,0,0,0V368.4z M531.4,367.3c0,0,0.1-0.1,0.1-0.1
	C531.4,367.2,531.4,367.2,531.4,367.3z"/>
</svg>
