<?xml version="1.0" encoding="utf-8"?>
<!-- Generator: Adobe Illustrator 18.1.1, SVG Export Plug-In . SVG Version: 6.00 Build 0)  -->
<svg version="1.1" id="Layer_1" xmlns="http://www.w3.org/2000/svg" xmlns:xlink="http://www.w3.org/1999/xlink" x="0px" y="0px"
	 viewBox="0 0 48 48" enable-background="new 0 0 48 48" xml:space="preserve">
<g>
	<path fill="#FFFFFF" d="M45.5,4.8h-43c-1.1,0-2-0.9-2-2v0c0-1.1,0.9-2,2-2h43c1.1,0,2,0.9,2,2v0C47.5,3.9,46.6,4.8,45.5,4.8z"/>
	<path fill="#FFFFFF" d="M45.5,26h-43c-1.1,0-2-0.9-2-2v0c0-1.1,0.9-2,2-2h43c1.1,0,2,0.9,2,2v0C47.5,25.1,46.6,26,45.5,26z"/>
	<path fill="#FFFFFF" d="M45.5,47.2h-43c-1.1,0-2-0.9-2-2v0c0-1.1,0.9-2,2-2h43c1.1,0,2,0.9,2,2v0C47.5,46.3,46.6,47.2,45.5,47.2z"
		/>
</g>
</svg>
