<?xml version="1.0" encoding="utf-8"?>
<!-- Generator: Adobe Illustrator 18.1.1, SVG Export Plug-In . SVG Version: 6.00 Build 0)  -->
<svg version="1.1" id="Layer_1" xmlns="http://www.w3.org/2000/svg" xmlns:xlink="http://www.w3.org/1999/xlink" x="0px" y="0px"
	 viewBox="488 360 48 48" enable-background="new 488 360 48 48" xml:space="preserve">
<g>
	<path fill="#84979D" d="M512,360.3c-13.1,0-23.7,10.6-23.7,23.7c0,13.1,10.6,23.7,23.7,23.7c13.1,0,23.7-10.6,23.7-23.7
		C535.7,370.9,525.1,360.3,512,360.3z M512,405.8c-12,0-21.7-9.7-21.8-21.8c0-12,9.7-21.7,21.8-21.8c12,0,21.7,9.7,21.8,21.8
		C533.7,396,524,405.7,512,405.8z"/>
	<path fill="#84979D" d="M514.8,382.8l7.7-10.5l-1.8-1.3l-7.7,10.5c-1-0.3-2.1-0.1-3,0.5l-7.2-5.2l-1.3,1.8l7.2,5.2
		c-0.4,1.4,0,2.9,1.2,3.8c1.5,1.1,3.7,0.8,4.8-0.7C515.7,385.6,515.6,384,514.8,382.8z"/>
</g>
</svg>
