<?xml version="1.0" encoding="utf-8"?>
<!-- Generator: Adobe Illustrator 18.1.1, SVG Export Plug-In . SVG Version: 6.00 Build 0)  -->
<svg version="1.1" id="Layer_1" xmlns="http://www.w3.org/2000/svg" xmlns:xlink="http://www.w3.org/1999/xlink" x="0px" y="0px"
	 viewBox="488 360 48 48" enable-background="new 488 360 48 48" xml:space="preserve">
<g>
	<g>
		<path fill="#FFFFFF" d="M512,384.9c-6.7,0-12.2-5.5-12.2-12.2c0-6.7,5.5-12.2,12.2-12.2c6.7,0,12.2,5.5,12.2,12.2
			C524.2,379.4,518.7,384.9,512,384.9z M512,362.3c-5.7,0-10.3,4.6-10.3,10.3c0,5.7,4.6,10.3,10.3,10.3c5.7,0,10.3-4.6,10.3-10.3
			C522.3,366.9,517.7,362.3,512,362.3z"/>
	</g>
	<path fill="#FFFFFF" d="M531.2,400.3c0-7.5-6.1-13.5-13.5-13.5h-11.5c-7.5,0-13.5,6.1-13.5,13.5l0,4.6c0.1,1.5,1.3,2.7,2.8,2.7
		h32.8c1.5,0,2.7-1.2,2.8-2.7L531.2,400.3z M528.4,405.7h-32.8c-0.5,0-0.9-0.4-0.9-0.9v-4.5c0-6.4,5.2-11.6,11.6-11.6h11.5
		c6.4,0,11.6,5.2,11.6,11.6v4.5C529.3,405.3,528.9,405.7,528.4,405.7z"/>
</g>
</svg>
