<?xml version="1.0" encoding="utf-8"?>
<!-- Generator: Adobe Illustrator 18.1.1, SVG Export Plug-In . SVG Version: 6.00 Build 0)  -->
<svg version="1.1" id="Layer_1" xmlns="http://www.w3.org/2000/svg" xmlns:xlink="http://www.w3.org/1999/xlink" x="0px" y="0px"
	 viewBox="488 360 48 48" enable-background="new 488 360 48 48" xml:space="preserve">
<g>
	<path fill="#FFFFFF" d="M506.4,396.5c-9.9,0-18-8.1-18-18c0-9.9,8.1-18,18-18c9.9,0,18,8.1,18,18
		C524.4,388.4,516.3,396.5,506.4,396.5z M506.4,362.1c-9.1,0-16.4,7.4-16.4,16.4c0,9.1,7.4,16.4,16.4,16.4c9.1,0,16.4-7.4,16.4-16.4
		C522.8,369.4,515.4,362.1,506.4,362.1z"/>
	<path fill="#FFFFFF" d="M520.4,393.3c-0.2,0-0.4-0.1-0.6-0.2l-1.6-1.6c-0.3-0.3-0.3-0.8,0-1.1c0.3-0.3,0.8-0.3,1.1,0l1.6,1.6
		c0.3,0.3,0.3,0.8,0,1.1C520.8,393.2,520.6,393.3,520.4,393.3z"/>
	<path fill="#FFFFFF" d="M530.9,407.5h-0.3l-13-13l5.1-5.1l13,13v0.3C535.7,405.4,533.5,407.5,530.9,407.5z M519.8,394.5l11.4,11.4
		c1.5-0.1,2.7-1.3,2.8-2.8l-11.4-11.4L519.8,394.5z"/>
</g>
</svg>
