<?xml version="1.0" encoding="utf-8"?>
<!-- Generator: Adobe Illustrator 18.1.1, SVG Export Plug-In . SVG Version: 6.00 Build 0)  -->
<svg version="1.1" id="Layer_1" xmlns="http://www.w3.org/2000/svg" xmlns:xlink="http://www.w3.org/1999/xlink" x="0px" y="0px"
	 viewBox="0 0 48 48" enable-background="new 0 0 48 48" xml:space="preserve">
<g>
	<g>
		<g>
			<path fill="#424242" d="M24,33.2c1,0,1.9,0.8,1.9,1.9l0,0c0,1-0.8,1.9-1.9,1.9l0,0c-1,0-1.9-0.8-1.9-1.9l0,0
				C22.1,34,23,33.2,24,33.2L24,33.2z"/>
			<path fill="#424242" d="M24,17.5c1,0,1.9,0.8,1.9,1.9l0,0c0,1-0.8,1.9-1.9,1.9l0,0c-1,0-1.9-0.8-1.9-1.9l0,0
				C22.1,18.4,23,17.5,24,17.5L24,17.5z"/>
		</g>
		<g>
			<path fill="#424242" d="M28.2,31.4c0.7-0.7,1.9-0.7,2.7,0l0,0c0.7,0.7,0.7,1.9,0,2.7l0,0c-0.7,0.7-1.9,0.7-2.7,0l0,0
				C27.4,33.4,27.4,32.2,28.2,31.4L28.2,31.4z"/>
			<path fill="#424242" d="M17.1,20.4c0.7-0.7,1.9-0.7,2.7,0l0,0c0.7,0.7,0.7,1.9,0,2.7l0,0c-0.7,0.7-1.9,0.7-2.7,0l0,0
				C16.4,22.3,16.4,21.1,17.1,20.4L17.1,20.4z"/>
		</g>
		<g>
			<path fill="#424242" d="M29.9,27.2c0-1,0.8-1.9,1.9-1.9l0,0c1,0,1.9,0.8,1.9,1.9l0,0c0,1-0.8,1.9-1.9,1.9l0,0
				C30.8,29.1,29.9,28.3,29.9,27.2L29.9,27.2z"/>
			<path fill="#424242" d="M14.3,27.2c0-1,0.8-1.9,1.9-1.9l0,0c1,0,1.9,0.8,1.9,1.9l0,0c0,1-0.8,1.9-1.9,1.9l0,0
				C15.1,29.1,14.3,28.3,14.3,27.2L14.3,27.2z"/>
		</g>
		<g>
			<path fill="#424242" d="M28.2,23c-0.7-0.7-0.7-1.9,0-2.7l0,0c0.7-0.7,1.9-0.7,2.7,0l0,0c0.7,0.7,0.7,1.9,0,2.7l0,0
				C30.1,23.8,28.9,23.8,28.2,23L28.2,23z"/>
			<path fill="#424242" d="M17.1,34.1c-0.7-0.7-0.7-1.9,0-2.7l0,0c0.7-0.7,1.9-0.7,2.7,0l0,0c0.7,0.7,0.7,1.9,0,2.7l0,0
				C19.1,34.8,17.9,34.8,17.1,34.1L17.1,34.1z"/>
		</g>
	</g>
	<path fill="#424242" d="M43.1,22.6c2.9-0.7,4.6-2.6,4.6-5.5c0-0.3,0-0.6-0.1-0.9C46.8,9.3,36.7,4.1,24,4.1
		C11.3,4.1,1.2,9.3,0.4,16.2c0,0.3-0.1,0.6-0.1,0.9c0,2.8,1.7,4.8,4.6,5.5l-2.8,9.6c-0.3,1.1-0.6,2.8-0.6,4v4.9
		c0,1.6,1.3,2.8,2.8,2.8h39.3c1.6,0,2.8-1.3,2.8-2.8v-4.9c0-1.1-0.2-2.9-0.6-4L43.1,22.6z M2.2,17.1c0-0.2,0-0.4,0-0.7
		C2.9,10.6,12.5,6,24,6c11.5,0,21.1,4.6,21.8,10.5c0.5,3.8-2.7,4.6-5.4,4.6c-2.5,0-5.4-0.7-5.4-3.9c0-0.8,0.2-1.6,0.5-2.3l0.4-0.9
		l-1-0.4c-3.6-1.3-7.3-1.9-11-1.9c-3.7,0-7.4,0.7-11,2l-1,0.4l0.4,0.9c0.3,0.7,0.5,1.5,0.5,2.3c0,3.2-2.9,3.9-5.4,3.9
		C5.1,21,2.2,20.4,2.2,17.1z M44.6,41.1c0,0.5-0.4,0.9-0.9,0.9H4.3c-0.5,0-0.9-0.4-0.9-0.9v-4.9c0-1,0.2-2.5,0.5-3.5l2.9-9.8
		c0.3,0,0.6,0,0.8,0c4.6,0,7.3-2.2,7.3-5.8c0-0.7-0.1-1.4-0.3-2.1c3.1-1,6.3-1.5,9.4-1.5c3.2,0,6.4,0.5,9.4,1.5
		c-0.2,0.7-0.3,1.4-0.3,2.1c0,3.6,2.7,5.8,7.3,5.8c0.3,0,0.6,0,0.8,0l2.9,9.8c0.3,0.9,0.5,2.5,0.5,3.5V41.1z"/>
</g>
</svg>
