<?xml version="1.0" encoding="utf-8"?>
<!-- Generator: Adobe Illustrator 18.1.1, SVG Export Plug-In . SVG Version: 6.00 Build 0)  -->
<svg version="1.1" id="Layer_1" xmlns="http://www.w3.org/2000/svg" xmlns:xlink="http://www.w3.org/1999/xlink" x="0px" y="0px"
	 viewBox="0 0 48 48" enable-background="new 0 0 48 48" xml:space="preserve">
<g>
	<path fill="#84979D" d="M30.3,1.9c0-0.6-0.3-1-0.6-1.2l-0.1-0.1H18.4l-0.1,0.1c-0.3,0.1-0.7,0.5-0.6,1.1c0,0.9,0.6,2.2,1,2.9V42
		c0,2.9,2.4,5.3,5.3,5.3c3,0,5.4-2.4,5.4-5.3V4.7C29.7,4,30.4,2.7,30.3,1.9z M28,4.1l-0.1,0.2v37.8c0,1-0.4,2-1.2,2.7
		c-0.8,0.7-1.7,1.1-2.8,1.1c-2.1,0-3.8-1.7-3.8-3.9V4.3l0-0.2c-0.4-0.6-0.8-1.6-1-2.1h9.7C28.8,2.6,28.3,3.4,28,4.1z"/>
	<path fill="#84979D" d="M21.1,25.4V42c0,1.6,1.3,2.9,2.9,2.9c0.8,0,1.5-0.3,2.1-0.9c0.6-0.6,0.9-1.3,0.9-2.1V25.4H21.1z"/>
</g>
</svg>
