<?xml version="1.0" encoding="utf-8"?>
<!-- Generator: Adobe Illustrator 18.1.1, SVG Export Plug-In . SVG Version: 6.00 Build 0)  -->
<svg version="1.1" id="Layer_1" xmlns="http://www.w3.org/2000/svg" xmlns:xlink="http://www.w3.org/1999/xlink" x="0px" y="0px"
	 viewBox="488 360 48 48" enable-background="new 488 360 48 48" xml:space="preserve">
<g>
	<path fill="#E45452" d="M523.1,366.9c0.1,0.4,0,0.9-0.1,1.3h3.2v38.4h-28.3v-38.4h3.1c-0.2-0.4-0.2-0.9-0.1-1.3h-4.3v41h30.9v-41
		H523.1z"/>
	<path fill="#E45452" d="M523.5,371h-23v-3.4c0-1.9,1.5-3.4,3.4-3.4h4.6v-0.4c0-1.9,1.3-3.5,3.5-3.5c2.2,0,3.5,1.6,3.5,3.5v0.4h4.6
		c1.9,0,3.4,1.5,3.4,3.4L523.5,371L523.5,371z M501.8,369.6h20.4v-2.1c0-0.9-0.8-2.1-2.1-2.1h-5.9v-1.7c0-1.2-1-2.2-2.2-2.2
		c-1.2,0-2.2,1-2.2,2.2v1.7h-5.9c-1.4,0-2.1,1.3-2.1,2.1v1.4L501.8,369.6z"/>
	<g>
		<path fill="#E45452" d="M520.7,378.6h-12.3c-0.4,0-0.7,0.3-0.7,0.7c0,0.4,0.3,0.7,0.7,0.7h12.3c0.4,0,0.7-0.3,0.7-0.7
			C521.4,378.9,521.1,378.6,520.7,378.6L520.7,378.6z M520.7,378.6"/>
		<path fill="#E45452" d="M520.7,382.8h-12.3c-0.4,0-0.7,0.3-0.7,0.7s0.3,0.7,0.7,0.7h12.3c0.4,0,0.7-0.3,0.7-0.7
			S521.1,382.8,520.7,382.8L520.7,382.8z M520.7,382.8"/>
		<path fill="#E45452" d="M520.7,386.9h-12.3c-0.4,0-0.7,0.3-0.7,0.7s0.3,0.7,0.7,0.7h12.3c0.4,0,0.7-0.3,0.7-0.7
			S521.1,386.9,520.7,386.9L520.7,386.9z M520.7,386.9"/>
		<path fill="#E45452" d="M520.7,391h-12.3c-0.4,0-0.7,0.3-0.7,0.7s0.3,0.7,0.7,0.7h12.3c0.4,0,0.7-0.3,0.7-0.7S521.1,391,520.7,391
			L520.7,391z M520.7,391"/>
	</g>
	<g>
		<path fill="#E45452" d="M504.8,378.6h-1.5c-0.4,0-0.7,0.3-0.7,0.7c0,0.4,0.3,0.7,0.7,0.7h1.5c0.4,0,0.7-0.3,0.7-0.7
			C505.5,378.9,505.2,378.6,504.8,378.6L504.8,378.6z M504.8,378.6"/>
		<path fill="#E45452" d="M504.8,382.8h-1.5c-0.4,0-0.7,0.3-0.7,0.7s0.3,0.7,0.7,0.7h1.5c0.4,0,0.7-0.3,0.7-0.7
			S505.2,382.8,504.8,382.8L504.8,382.8z M504.8,382.8"/>
		<path fill="#E45452" d="M504.8,386.9h-1.5c-0.4,0-0.7,0.3-0.7,0.7s0.3,0.7,0.7,0.7h1.5c0.4,0,0.7-0.3,0.7-0.7
			S505.2,386.9,504.8,386.9L504.8,386.9z M504.8,386.9"/>
		<path fill="#E45452" d="M504.8,391h-1.5c-0.4,0-0.7,0.3-0.7,0.7s0.3,0.7,0.7,0.7h1.5c0.4,0,0.7-0.3,0.7-0.7S505.2,391,504.8,391
			L504.8,391z M504.8,391"/>
	</g>
</g>
</svg>
