<?xml version="1.0" encoding="utf-8"?>
<!-- Generator: Adobe Illustrator 18.1.1, SVG Export Plug-In . SVG Version: 6.00 Build 0)  -->
<svg version="1.1" id="Layer_1" xmlns="http://www.w3.org/2000/svg" xmlns:xlink="http://www.w3.org/1999/xlink" x="0px" y="0px"
	 viewBox="0 0 48 48" enable-background="new 0 0 48 48" xml:space="preserve">
<g>
	<path fill="#8CA0A7" d="M43.3,38.6c-5.6-4.3-3.5-11-6.4-21.4c-1.8-6.8-5.5-9.6-8.2-10.7c0.5-1.4,0.5-2.8-0.2-3.9
		c-0.7-1.1-1.8-1.8-3.1-1.8C23,0.7,21.9,2,21.4,2.7c-0.6,1.1-0.7,2.4-0.2,3.6c-0.6,0.2-1.2,0.4-1.8,0.7c-2.9,1.4-6.1,4.3-7.7,10.2
		C8.9,27.7,10.5,34.6,5,38.4c-1.4,0.7-2.3,1.3-2.1,2.3c0.2,1.1,1.3,1.1,2.8,1.1h36.8c1.7,0,2.5-0.3,2.6-1.2
		C45.3,39.7,44.4,39.3,43.3,38.6z M23,3.6c0.4-0.7,1.3-1.1,2.4-1.1c0.6,0,1.3,0.4,1.6,1C27.4,4.2,27.4,5,27,6c-1.2-0.3-2-0.2-2-0.2
		s-0.8,0-2,0.2C22.6,5.2,22.6,4.3,23,3.6z M5.6,40.2c0.8-0.6,1.5-1.1,1.9-1.5c3-2.9,3.6-7,4.2-11.8c0.4-2.7,0.8-5.8,1.7-9.2
		c1.2-4.4,3.4-7.4,6.8-9.1c2.5-1.2,4.7-1.2,4.8-1.2l0.1,0l0.1,0c0.3,0,7.3-0.2,10.1,10.1c1,3.6,1.4,6.8,1.7,9.6
		c0.5,4,0.8,7.3,2.8,10c0.7,1,1,1.7,3,3H5.6z"/>
	<path fill="#8CA0A7" d="M21.2,46c0.8,0.8,1.7,1.2,2.8,1.2c1.1,0,2-0.4,2.7-1.2c0.7-0.8,1.1-1.7,1.1-2.7h-7.8
		C20.1,44.4,20.5,45.3,21.2,46L21.2,46z M21.2,46"/>
</g>
</svg>
