<?xml version="1.0" encoding="utf-8"?>
<!-- Generator: Adobe Illustrator 18.1.1, SVG Export Plug-In . SVG Version: 6.00 Build 0)  -->
<svg version="1.1" id="Layer_1" xmlns="http://www.w3.org/2000/svg" xmlns:xlink="http://www.w3.org/1999/xlink" x="0px" y="0px"
	 viewBox="0 0 48 48" enable-background="new 0 0 48 48" xml:space="preserve">
<g>
	<path fill="#84979D" d="M39.9,31.9c0.2-0.4,0-0.9-0.4-1.1c-0.4-0.2-0.9,0-1.1,0.4c-2.8,5.6-8.3,9-14.4,9c-8.9,0-16.2-7.3-16.2-16.2
		c0-0.3,0.1-0.5,0.1-0.7l4.1,4.1c0.3,0.3,0.9,0.3,1.2,0c0.3-0.3,0.3-0.9,0-1.2L7,20l-6.2,6.2c-0.3,0.3-0.3,0.9,0,1.2s0.9,0.3,1.2,0
		l4.2-4.2c0,0.3,0,0.6,0,0.8c0,4.9,2,9.4,5.2,12.6c3.2,3.2,7.7,5.2,12.6,5.2C30.8,41.9,36.9,38.1,39.9,31.9z"/>
	<path fill="#84979D" d="M24,7.8c8.9,0,16.2,7.3,16.2,16.2c0,0.3-0.1,0.5-0.1,0.7L36,20.6c-0.3-0.3-0.9-0.3-1.2,0
		c-0.3,0.3-0.3,0.9,0,1.2L41,28l6.2-6.2c0.3-0.3,0.3-0.9,0-1.2c-0.3-0.3-0.9-0.3-1.2,0l-4.2,4.2c0-0.3,0.1-0.5,0.1-0.8
		c0-9.9-8-17.9-17.9-17.9c-6.8,0-12.9,3.8-16,9.9c-0.2,0.3-0.1,0.7,0.2,1c0.1,0.1,0.1,0.1,0.2,0.2c0.4,0.2,0.9,0,1.1-0.4
		C12.3,11.2,17.9,7.8,24,7.8z"/>
</g>
</svg>
