<?xml version="1.0" encoding="utf-8"?>
<!-- Generator: Adobe Illustrator 18.1.1, SVG Export Plug-In . SVG Version: 6.00 Build 0)  -->
<svg version="1.1" id="Layer_1" xmlns="http://www.w3.org/2000/svg" xmlns:xlink="http://www.w3.org/1999/xlink" x="0px" y="0px"
	 viewBox="0 0 1024 768" enable-background="new 0 0 1024 768" xml:space="preserve">
<g>
	<path fill="#495559" d="M820.8,617.6c-89.6-68.8-56-176-102.4-342.4c-28.8-108.8-88-153.6-131.2-171.2c8-22.4,8-44.8-3.2-62.4
		s-28.8-28.8-49.6-28.8c-38.4-1.6-56,19.2-64,30.4c-9.6,17.6-11.2,38.4-3.2,57.6c-9.6,3.2-19.2,6.4-28.8,11.2
		c-46.4,22.4-97.6,68.8-123.2,163.2C270.4,443.2,296,553.6,208,614.4c-22.4,11.2-36.8,20.8-33.6,36.8c3.2,17.6,20.8,17.6,44.8,17.6
		H808c27.2,0,40-4.8,41.6-19.2C852.8,635.2,838.4,628.8,820.8,617.6z M496,57.6c6.4-11.2,20.8-17.6,38.4-17.6
		c9.6,0,20.8,6.4,25.6,16c6.4,11.2,6.4,24,0,40c-19.2-4.8-32-3.2-32-3.2s-12.8,0-32,3.2C489.6,83.2,489.6,68.8,496,57.6z
		 M217.6,643.2c12.8-9.6,24-17.6,30.4-24c48-46.4,57.6-112,67.2-188.8c6.4-43.2,12.8-92.8,27.2-147.2
		c19.2-70.4,54.4-118.4,108.8-145.6c40-19.2,75.2-19.2,76.8-19.2h1.6h1.6c4.8,0,116.8-3.2,161.6,161.6
		c16,57.6,22.4,108.8,27.2,153.6c8,64,12.8,116.8,44.8,160c11.2,16,16,27.2,48,48H217.6V643.2z"/>
	<path fill="#495559" d="M467.2,736c12.8,12.8,27.2,19.2,44.8,19.2s32-6.4,43.2-19.2s17.6-27.2,17.6-43.2H448
		C449.6,710.4,456,724.8,467.2,736L467.2,736z"/>
</g>
</svg>
