<?xml version="1.0" encoding="utf-8"?>
<!-- Generator: Adobe Illustrator 18.1.1, SVG Export Plug-In . SVG Version: 6.00 Build 0)  -->
<svg version="1.1" id="Layer_1" xmlns="http://www.w3.org/2000/svg" xmlns:xlink="http://www.w3.org/1999/xlink" x="0px" y="0px"
	 viewBox="0 0 48 48" enable-background="new 0 0 48 48" xml:space="preserve">
<g>
	<g>
		<path fill="#84979D" d="M12,18.6c-3.9,0-7-3.1-7-7s3.1-7,7-7s7,3.1,7,7S15.9,18.6,12,18.6z M12,5.9c-3.1,0-5.7,2.5-5.7,5.7
			s2.5,5.7,5.7,5.7c3.1,0,5.7-2.5,5.7-5.7S15.1,5.9,12,5.9z"/>
		<path fill="#84979D" d="M12,33.7c-3.9,0-7.8-1.3-10.9-3.8l-0.3-0.2v-4.4c0-0.4,0.5-1.8,2.1-3.1c1.4-1.1,3.9-2.4,8.4-2.4
			c8.6,0,11.7,3.8,11.7,4.8v5.2L22.8,30C19.7,32.4,16,33.7,12,33.7z M2.2,29.1c2.8,2.1,6.3,3.3,9.8,3.3c3.6,0,6.9-1.1,9.7-3.3v-4.4
			c-0.2-0.4-2.6-3.6-10.4-3.6c-4.1,0-6.3,1.2-7.5,2.1c-1.2,1-1.6,2-1.6,2.1V29.1z"/>
	</g>
	<g>
		<path fill="#84979D" d="M36,18.6c-3.9,0-7-3.1-7-7s3.1-7,7-7s7,3.1,7,7S39.9,18.6,36,18.6z M36,5.9c-3.1,0-5.7,2.5-5.7,5.7
			s2.5,5.7,5.7,5.7c3.1,0,5.7-2.5,5.7-5.7S39.2,5.9,36,5.9z"/>
		<path fill="#84979D" d="M36,33.7c-3.9,0-7.8-1.3-10.9-3.8l-0.3-0.2v-4.4c0-0.4,0.5-1.8,2.1-3.1c1.4-1.1,3.9-2.4,8.4-2.4
			c8.6,0,11.7,3.8,11.7,4.8v5.2L46.9,30C43.8,32.4,40,33.7,36,33.7z M26.3,29.1c2.8,2.1,6.3,3.3,9.8,3.3c3.6,0,6.9-1.1,9.7-3.3v-4.4
			c-0.2-0.4-2.6-3.6-10.4-3.6c-4.1,0-6.3,1.2-7.5,2.1c-1.2,1-1.6,2-1.6,2.1V29.1z"/>
	</g>
	<g>
		<path fill="#84979D" d="M24,25c-4.6,0-8.4-3.8-8.4-8.4s3.8-8.4,8.4-8.4c4.6,0,8.4,3.8,8.4,8.4S28.6,25,24,25z"/>
		<path fill="#FFFFFF" d="M24,9.6c-3.9,0-7,3.2-7,7s3.2,7,7,7s7-3.2,7-7S27.9,9.6,24,9.6z"/>
		<path fill="#84979D" d="M24,43.4c-4.7,0-9.4-1.6-13.1-4.6l-0.3-0.2v-5.3c0-0.3,0.5-2,2.5-3.7c1.6-1.3,4.7-2.9,10.1-2.9
			c10.4,0,14.1,4.6,14.1,5.7v6.2l-0.3,0.2C33.3,41.8,28.8,43.4,24,43.4z"/>
		<path fill="#FFFFFF" d="M12,38c3.4,2.6,7.7,4.1,12,4.1c4.4,0,8.5-1.4,12-4v-5.5c-0.4-0.8-3.7-4.5-12.8-4.5c-5,0-7.8,1.4-9.3,2.6
			c-1.4,1.2-1.9,2.4-2,2.7V38z"/>
	</g>
</g>
</svg>
