<?xml version="1.0" encoding="utf-8"?>
<!-- Generator: Adobe Illustrator 18.1.1, SVG Export Plug-In . SVG Version: 6.00 Build 0)  -->
<svg version="1.1" id="Layer_1" xmlns="http://www.w3.org/2000/svg" xmlns:xlink="http://www.w3.org/1999/xlink" x="0px" y="0px"
	 viewBox="0 0 48 48" enable-background="new 0 0 48 48" xml:space="preserve">
<g>
	<circle fill="#8CA0A7" cx="24" cy="24" r="23.6"/>
	<g>
		<g>
			<path fill="#FFFFFF" d="M22.9,36.3V11.7c0-0.6,0.5-1.1,1.1-1.1h0c0.6,0,1.1,0.5,1.1,1.1v24.5c0,0.6-0.5,1.1-1.1,1.1h0
				C23.4,37.4,22.9,36.9,22.9,36.3z"/>
			<path fill="#FFFFFF" d="M36.3,25.1H11.7c-0.6,0-1.1-0.5-1.1-1.1v0c0-0.6,0.5-1.1,1.1-1.1h24.5c0.6,0,1.1,0.5,1.1,1.1v0
				C37.4,24.6,36.9,25.1,36.3,25.1z"/>
		</g>
	</g>
</g>
</svg>
