<?xml version="1.0" encoding="utf-8"?>
<!-- Generator: Adobe Illustrator 18.1.1, SVG Export Plug-In . SVG Version: 6.00 Build 0)  -->
<svg version="1.1" id="Layer_1" xmlns="http://www.w3.org/2000/svg" xmlns:xlink="http://www.w3.org/1999/xlink" x="0px" y="0px"
	 viewBox="488 360 48 48" enable-background="new 488 360 48 48" xml:space="preserve">
<path fill="#A76A00" d="M531.6,362h-26.6c-2.2,0-3.9,1.8-3.9,3.9v3.1h-8.6c-2.2,0-3.9,1.8-3.9,3.9v18c0,2.2,1.8,3.9,3.9,3.9h2.6
	l-3.4,11.2l12-11.2h15.4c2.2,0,3.9-1.8,3.9-3.9v-2.2l11,10.2l-3.4-11.2h1c2.2,0,3.9-1.8,3.9-3.9v-18
	C535.5,363.7,533.7,362,531.6,362z M521.4,390.9c0,1.3-1.1,2.4-2.4,2.4h-16l-8.2,7.6l2.3-7.6h-4.7c-1.3,0-2.4-1.1-2.4-2.4v-18
	c0-1.3,1.1-2.4,2.4-2.4h26.6c1.3,0,2.4,1.1,2.4,2.4V390.9z M533.9,383.9c0,1.3-1.1,2.4-2.4,2.4h-3.2l2.3,7.6l-7.8-7.2v-13.7
	c0-2.2-1.8-3.9-3.9-3.9h-16.5v-3.1c0-1.3,1.1-2.4,2.4-2.4h26.6c1.3,0,2.4,1.1,2.4,2.4V383.9z"/>
</svg>
