<?xml version="1.0" encoding="utf-8"?>
<!-- Generator: Adobe Illustrator 18.1.1, SVG Export Plug-In . SVG Version: 6.00 Build 0)  -->
<svg version="1.1" id="Layer_1" xmlns="http://www.w3.org/2000/svg" xmlns:xlink="http://www.w3.org/1999/xlink" x="0px" y="0px"
	 viewBox="488 360 48 48" enable-background="new 488 360 48 48" xml:space="preserve">
<g>
	<g>
		<path fill="#B08A00" d="M531.2,364.8h-6.1V363c0-1.4-1.2-2.6-2.6-2.6h-0.9c-1.4,0-2.6,1.2-2.6,2.6v1.7h-14V363
			c0-1.4-1.2-2.6-2.6-2.6h-0.9c-1.4,0-2.6,1.2-2.6,2.6v1.7h-6.1c-2.4,0-4.4,2-4.4,4.4v34.1c0,2.4,2,4.4,4.4,4.4h38.5
			c2.4,0,4.4-2,4.4-4.4v-34.1C535.6,366.7,533.7,364.8,531.2,364.8z M492.8,366.5h6.1v1.7c0,1.4,1.2,2.6,2.6,2.6h2.6
			c0.5,0,0.9-0.4,0.9-0.9c0-0.5-0.4-0.9-0.9-0.9h-2.6c-0.5,0-0.9-0.4-0.9-0.9V363c0-0.5,0.4-0.9,0.9-0.9h0.9c0.5,0,0.9,0.4,0.9,0.9
			v1.7c-0.5,0-0.9,0.4-0.9,0.9c0,0.5,0.4,0.9,0.9,0.9H519v1.7c0,1.4,1.2,2.6,2.6,2.6h2.6c0.5,0,0.9-0.4,0.9-0.9
			c0-0.5-0.4-0.9-0.9-0.9h-2.6c-0.5,0-0.9-0.4-0.9-0.9V363c0-0.5,0.4-0.9,0.9-0.9h0.9c0.5,0,0.9,0.4,0.9,0.9v1.7
			c-0.5,0-0.9,0.4-0.9,0.9c0,0.5,0.4,0.9,0.9,0.9h7.9c1.4,0,2.6,1.2,2.6,2.6v7h-43.7v-7C490.1,367.7,491.3,366.5,492.8,366.5z
			 M531.2,405.9h-38.5c-1.4,0-2.6-1.2-2.6-2.6v-25.4h43.7v25.4C533.9,404.7,532.7,405.9,531.2,405.9z"/>
	</g>
</g>
</svg>
