<?xml version="1.0" encoding="utf-8"?>
<!-- Generator: Adobe Illustrator 18.1.1, SVG Export Plug-In . SVG Version: 6.00 Build 0)  -->
<svg version="1.1" id="Layer_1" xmlns="http://www.w3.org/2000/svg" xmlns:xlink="http://www.w3.org/1999/xlink" x="0px" y="0px"
	 viewBox="488 360 48 48" style="enable-background:new 488 360 48 48;" xml:space="preserve">
<style type="text/css">
	.st0{fill:#FFFFFF;}
	.st1{fill:#84979D;}
</style>
<g>
	<circle class="st0" cx="512" cy="384" r="23.792"/>
	<g>
		<path class="st1" d="M520.636,372.589c-0.112-0.114-0.262-0.175-0.42-0.174l-15.9,0.006c-0.158,0-0.305,0.066-0.421,0.177
			c-0.112,0.112-0.174,0.263-0.174,0.421l0.004,0.783l0.008,11.856c-0.004,0.035-0.004,0.062-0.004,0.062v0.039
			c0.019,4.085,3.553,7.337,7.919,7.618c0.008,0.004,0.204,0.017,0.211,0.017c0,0-0.001,0.589-0.003,1.367
			c-0.789,0.171-1.38,0.872-1.38,1.711c0,0.838,0.588,1.537,1.374,1.71c0,0.004,0,0.009,0,0.014v1.323
			c0,0.328,0.179,0.512,0.414,0.512c0.225,0,0.411-0.184,0.411-0.512v-1.343c0-0.004,0-0.008,0-0.012
			c0.75-0.198,1.304-0.879,1.304-1.692c0-0.812-0.553-1.493-1.303-1.691c0-0.792,0.001-1.393,0.001-1.393
			c0.012,0,0.201-0.011,0.209-0.011c4.378-0.281,7.915-3.541,7.923-7.641v-12.724C520.81,372.849,520.748,372.702,520.636,372.589z
			 M513.237,396.479c0,0.537-0.435,0.972-0.972,0.972c-0.537,0-0.972-0.435-0.972-0.972c0-0.537,0.435-0.972,0.972-0.972
			C512.802,395.507,513.237,395.942,513.237,396.479z M520.006,385.735c0.008,3.363-3.343,6.545-7.196,6.803
			c-0.089,0.004-0.432,0.013-0.544,0.013c-0.108,0-0.451-0.009-0.54-0.013c-3.842-0.258-7.19-3.432-7.19-6.78v-0.023
			c0-0.008,0-0.015,0-0.015l0.004-0.015l-0.008-11.906v-0.532l15.474-0.008V385.735z"/>
		<path class="st1" d="M508.319,378.987h4.396c0.238,0,0.431-0.193,0.431-0.431l0,0c0-0.238-0.193-0.431-0.431-0.431h-4.396
			c-0.238,0-0.431,0.193-0.431,0.431l0,0C507.888,378.794,508.081,378.987,508.319,378.987z"/>
		<path class="st1" d="M508.319,381.54h4.396c0.238,0,0.431-0.193,0.431-0.431l0,0c0-0.238-0.193-0.431-0.431-0.431h-4.396
			c-0.238,0-0.431,0.193-0.431,0.431l0,0C507.888,381.347,508.081,381.54,508.319,381.54z"/>
		<path class="st1" d="M508.319,384.094h4.396c0.238,0,0.431-0.193,0.431-0.431l0,0c0-0.238-0.193-0.431-0.431-0.431h-4.396
			c-0.238,0-0.431,0.193-0.431,0.431l0,0C507.888,383.901,508.081,384.094,508.319,384.094z"/>
		<path class="st1" d="M508.319,386.653h4.396c0.238,0,0.431-0.193,0.431-0.431l0,0c0-0.238-0.193-0.431-0.431-0.431h-4.396
			c-0.238,0-0.431,0.193-0.431,0.431l0,0C507.888,386.46,508.081,386.653,508.319,386.653z"/>
	</g>
</g>
</svg>
