<?xml version="1.0" encoding="utf-8"?>
<!-- Generator: Adobe Illustrator 18.1.1, SVG Export Plug-In . SVG Version: 6.00 Build 0)  -->
<svg version="1.1" id="Layer_1" xmlns="http://www.w3.org/2000/svg" xmlns:xlink="http://www.w3.org/1999/xlink" x="0px" y="0px"
	 viewBox="488 360 48 48" style="enable-background:new 488 360 48 48;" xml:space="preserve">
<style type="text/css">
	.st0{fill:#FFFFFF;}
	.st1{fill:#84979D;}
</style>
<circle class="st0" cx="512" cy="384" r="23.792"/>
<path class="st1" d="M523.106,391.754c-0.06-0.405-0.323-0.762-0.804-1.09l-4.959-3.393c-0.256-0.174-0.554-0.267-0.862-0.267
	c-0.479,0-0.927,0.226-1.202,0.607l-1.287,1.822c-0.101,0.141-0.125,0.315-0.131,0.483c-0.492,0.072-1.919,0.029-4.261-2.313
	c-2.264-2.261-3.336-3.923-3.197-4.951c0.025-0.012,0.043-0.037,0.066-0.054c0.118-0.033,0.226-0.073,0.314-0.141l1.778-1.347
	c0.634-0.478,0.758-1.409,0.276-2.077l-3.554-4.846c-0.684-0.932-1.488-1.029-2.351-0.287c-0.546,0.468-1.452,1.598-1.827,2.278
	c-0.206,0.364-0.291,0.74-0.255,1.118c-0.132,0.545-0.418,2.149,0.059,4.387c0.648,3.042,2.399,5.962,5.207,8.679
	c4.693,4.541,8.816,5.22,10.856,5.22h0c1.199,0,2.036-0.22,2.422-0.382c0.358,0.015,0.712-0.086,1.058-0.293
	c0.668-0.396,1.767-1.339,2.216-1.902C523.021,392.565,523.165,392.156,523.106,391.754z M522.013,392.48
	c-0.388,0.486-1.411,1.363-1.992,1.706c-0.079,0.047-0.156,0.081-0.233,0.11c-0.566-0.246-1.562-0.766-1.86-1.14
	c-0.144-0.18-0.409-0.21-0.589-0.065c-0.18,0.145-0.21,0.409-0.065,0.589c0.263,0.329,0.767,0.657,1.227,0.913
	c-0.368,0.08-0.878,0.15-1.529,0.15h0c-1.913,0-5.792-0.648-10.273-4.984c-6.391-6.187-5.177-11.721-5.017-12.33
	c0.014-0.055,0.017-0.112,0.009-0.167c-0.033-0.222,0.015-0.442,0.147-0.675c0.327-0.594,1.171-1.648,1.641-2.051
	c0.217-0.186,0.409-0.284,0.556-0.284c0.063,0,0.256,0,0.573,0.431l3.553,4.844c0.215,0.298,0.169,0.709-0.104,0.915l-1.758,1.334
	c-0.007,0.003-0.019,0.007-0.031,0.011c-0.463-0.356-1.098-0.893-1.298-1.199c-0.126-0.194-0.387-0.248-0.58-0.122
	c-0.194,0.126-0.248,0.386-0.122,0.58c0.271,0.416,0.925,0.965,1.344,1.293c-0.334,1.366,0.727,3.188,3.399,5.857
	c2.129,2.128,3.681,2.575,4.609,2.575c0.406,0,0.711-0.091,0.86-0.176c0.112-0.063,0.189-0.176,0.208-0.303
	c0.009-0.057,0.011-0.139,0.012-0.23c0.001-0.05,0.002-0.137,0.008-0.185l1.258-1.781c0.191-0.266,0.618-0.332,0.908-0.135
	l4.959,3.393c0.273,0.187,0.424,0.362,0.447,0.521C522.299,392.031,522.211,392.234,522.013,392.48z"/>
<path class="st1" d="M511.403,378.237c3.242,0.99,5.778,3.514,6.785,6.75c0.056,0.18,0.221,0.295,0.4,0.295
	c0.042,0,0.083-0.006,0.124-0.018c0.221-0.069,0.345-0.304,0.276-0.525c-1.09-3.502-3.834-6.232-7.341-7.303
	c-0.222-0.069-0.456,0.057-0.524,0.279C511.057,377.935,511.181,378.169,511.403,378.237z"/>
<path class="st1" d="M511.978,375.131c4.861,1.149,8.577,5.066,9.467,9.979c0.037,0.202,0.213,0.344,0.412,0.344
	c0.025,0,0.05-0.002,0.075-0.007c0.228-0.041,0.379-0.26,0.337-0.488c-0.949-5.241-4.914-9.42-10.099-10.646
	c-0.225-0.051-0.451,0.086-0.504,0.312C511.613,374.851,511.752,375.077,511.978,375.131z"/>
</svg>
