<?xml version="1.0" encoding="utf-8"?>
<!-- Generator: Adobe Illustrator 18.1.1, SVG Export Plug-In . SVG Version: 6.00 Build 0)  -->
<svg version="1.1" id="Layer_1" xmlns="http://www.w3.org/2000/svg" xmlns:xlink="http://www.w3.org/1999/xlink" x="0px" y="0px"
	 viewBox="488 360 48 48" enable-background="new 488 360 48 48" xml:space="preserve">
<g>
	<g>
		<g>
			<path fill="#A21814" d="M514,397.5H510c-1.4,0-2.6-1.1-2.6-2.5v-1.6h-1.9c-1.4,0-2.6-1.1-2.6-2.5v-3.5c0-1.4,1.2-2.5,2.6-2.5h1.9
				v-1.6c0-1.4,1.2-2.5,2.6-2.5h3.9c1.4,0,2.6,1.1,2.6,2.5v1.6h1.9c1.4,0,2.6,1.1,2.6,2.5v3.5c0,1.4-1.2,2.5-2.6,2.5h-1.9v1.6
				C516.6,396.3,515.4,397.5,514,397.5z M505.5,387.2c-0.2,0-0.3,0.1-0.3,0.2v3.5c0,0.1,0.1,0.2,0.3,0.2h3.1c0.6,0,1.1,0.5,1.1,1.1
				v2.7c0,0,0.1,0.2,0.3,0.2h3.9c0.2,0,0.3-0.1,0.3-0.2v-2.7c0-0.6,0.5-1.1,1.1-1.1h3.1c0.2,0,0.3-0.1,0.3-0.2v-3.5
				c0-0.1-0.1-0.2-0.3-0.2h-3.1c-0.6,0-1.1-0.5-1.1-1.1v-2.7c0-0.1-0.1-0.2-0.3-0.2H510c-0.2,0-0.3,0.1-0.3,0.2v2.7
				c0,0.6-0.5,1.1-1.1,1.1H505.5z"/>
		</g>
		<g>
			<path fill="#A21814" d="M526.9,407.5h-29.8c-4.7,0-8.6-3.5-8.6-7.8v-21.1c0-4.3,3.8-7.8,8.6-7.8h29.8c4.7,0,8.6,3.5,8.6,7.8v21.1
				C535.5,404,531.6,407.5,526.9,407.5z M497.1,373.2c-3.5,0-6.3,2.5-6.3,5.5v21.1c0,3,2.8,5.5,6.3,5.5h29.8c3.5,0,6.3-2.5,6.3-5.5
				v-21.1c0-3-2.8-5.5-6.3-5.5H497.1z"/>
		</g>
		<g>
			<path fill="#A21814" d="M519.8,372.8c-0.6,0-1.1-0.5-1.1-1.1v-3.2c0-0.4-0.2-0.7-0.3-0.8h-12.7c-0.1,0.1-0.3,0.4-0.3,0.8v3.2
				c0,0.6-0.5,1.1-1.1,1.1c-0.6,0-1.1-0.5-1.1-1.1v-3.2c0-1.7,1.1-3.1,2.5-3.1h12.9c1.3,0,2.5,1.4,2.5,3.1v3.2
				C520.9,372.3,520.4,372.8,519.8,372.8z"/>
		</g>
		<g>
			<path fill="#A21814" d="M525.2,372.9c-0.6,0-1.1-0.5-1.1-1.1v-3.3c0-3.1-2.5-5.6-5.6-5.6h-12.9c-3.1,0-5.6,2.5-5.6,5.6v3.2
				c0,0.6-0.5,1.1-1.1,1.1c-0.6,0-1.1-0.5-1.1-1.1v-3.2c0-4.4,3.5-7.9,7.9-7.9h12.9c4.4,0,7.9,3.5,7.9,7.9v3.3
				C526.3,372.4,525.8,372.9,525.2,372.9z"/>
		</g>
	</g>
</g>
</svg>
