<?xml version="1.0" encoding="utf-8"?>
<!-- Generator: Adobe Illustrator 18.1.1, SVG Export Plug-In . SVG Version: 6.00 Build 0)  -->
<svg version="1.1" id="Layer_1" xmlns="http://www.w3.org/2000/svg" xmlns:xlink="http://www.w3.org/1999/xlink" x="0px" y="0px"
	 viewBox="488 360 48 48" enable-background="new 488 360 48 48" xml:space="preserve">
<g>
	<g>
		<path fill="#035B67" d="M535.5,399.2c-0.1-0.8-0.7-1.6-1.7-2.3l-10.4-7.1c-0.5-0.4-1.2-0.6-1.8-0.6c-1,0-1.9,0.5-2.5,1.3l-2.7,3.8
			c-0.2,0.3-0.3,0.7-0.3,1c-1,0.2-4,0.1-8.9-4.8c-4.7-4.7-7-8.2-6.7-10.4c0.1,0,0.1-0.1,0.1-0.1c0.2-0.1,0.5-0.2,0.7-0.3l3.7-2.8
			c1.3-1,1.6-3,0.6-4.4l-7.5-10.2c-1.4-2-3.1-2.2-4.9-0.6c-1.1,1-3,3.4-3.8,4.8c-0.4,0.8-0.6,1.6-0.5,2.3c-0.3,1.1-0.9,4.5,0.1,9.2
			c1.4,6.4,5,12.5,10.9,18.2c9.8,9.5,18.5,10.9,22.8,10.9h0c2.5,0,4.3-0.5,5.1-0.8c0.8,0,1.5-0.2,2.2-0.6c1.4-0.8,3.7-2.8,4.6-4
			C535.4,400.9,535.7,400.1,535.5,399.2z M533.2,400.7c-0.8,1-3,2.9-4.2,3.6c-0.2,0.1-0.3,0.2-0.5,0.2c-1.2-0.5-3.3-1.6-3.9-2.4
			c-0.3-0.4-0.9-0.4-1.2-0.1c-0.4,0.3-0.4,0.9-0.1,1.2c0.6,0.7,1.6,1.4,2.6,1.9c-0.8,0.2-1.8,0.3-3.2,0.3h0c-4,0-12.1-1.4-21.5-10.5
			c-13.4-13-10.9-24.6-10.5-25.9c0-0.1,0-0.2,0-0.4c-0.1-0.5,0-0.9,0.3-1.4c0.7-1.2,2.5-3.5,3.4-4.3c0.5-0.4,0.9-0.6,1.2-0.6
			c0.1,0,0.5,0,1.2,0.9l7.4,10.2c0.5,0.6,0.4,1.5-0.2,1.9l-3.7,2.8c0,0,0,0-0.1,0c-1-0.7-2.3-1.9-2.7-2.5c-0.3-0.4-0.8-0.5-1.2-0.3
			c-0.4,0.3-0.5,0.8-0.3,1.2c0.6,0.9,1.9,2,2.8,2.7c-0.7,2.9,1.5,6.7,7.1,12.3c4.5,4.5,7.7,5.4,9.7,5.4c0.9,0,1.5-0.2,1.8-0.4
			c0.2-0.1,0.4-0.4,0.4-0.6c0-0.1,0-0.3,0-0.5c0-0.1,0-0.3,0-0.4l2.6-3.7c0.4-0.6,1.3-0.7,1.9-0.3l10.4,7.1c0.6,0.4,0.9,0.8,0.9,1.1
			C533.8,399.8,533.7,400.2,533.2,400.7z"/>
		<path fill="#035B67" d="M511,370.9c6.8,2.1,12.1,7.4,14.2,14.2c0.1,0.4,0.5,0.6,0.8,0.6c0.1,0,0.2,0,0.3,0
			c0.5-0.1,0.7-0.6,0.6-1.1c-2.3-7.3-8-13.1-15.4-15.3c-0.5-0.1-1,0.1-1.1,0.6C510.3,370.2,510.5,370.7,511,370.9z"/>
		<path fill="#035B67" d="M512.2,364.4c10.2,2.4,18,10.6,19.9,20.9c0.1,0.4,0.4,0.7,0.9,0.7c0.1,0,0.1,0,0.2,0
			c0.5-0.1,0.8-0.5,0.7-1c-2-11-10.3-19.8-21.2-22.3c-0.5-0.1-0.9,0.2-1.1,0.7C511.4,363.8,511.7,364.3,512.2,364.4z"/>
	</g>
</g>
</svg>
