<?xml version="1.0" encoding="utf-8"?>
<!-- Generator: Adobe Illustrator 18.1.1, SVG Export Plug-In . SVG Version: 6.00 Build 0)  -->
<svg version="1.1" id="Layer_1" xmlns="http://www.w3.org/2000/svg" xmlns:xlink="http://www.w3.org/1999/xlink" x="0px" y="0px"
	 viewBox="0 0 48 48" enable-background="new 0 0 48 48" xml:space="preserve">
<g>
	<path fill-rule="evenodd" clip-rule="evenodd" fill="#8CA0A7" d="M20.4,16c0,0.4-0.3,0.7-0.7,0.7c-0.4,0-0.7-0.3-0.7-0.7
		c0-1.4,0.6-2.7,1.5-3.6l0.1,0c0.9-0.9,2.2-1.4,3.5-1.4c1.4,0,2.7,0.6,3.6,1.5l0,0c0.9,0.9,1.5,2.2,1.5,3.6c0,0.4-0.3,0.7-0.7,0.7
		c-0.4,0-0.7-0.3-0.7-0.7c0-1-0.4-1.9-1.1-2.6h0c-0.6-0.7-1.6-1.1-2.6-1.1c-1,0-1.9,0.4-2.5,1l0,0C20.8,14.1,20.4,15,20.4,16
		L20.4,16z M20.4,16"/>
	<path fill-rule="evenodd" clip-rule="evenodd" fill="#8CA0A7" d="M29.1,39.2c0,0.4-0.3,0.7-0.7,0.7c-0.4,0-0.7-0.3-0.7-0.7V16
		c0-0.4,0.3-0.7,0.7-0.7c0.4,0,0.7,0.3,0.7,0.7V39.2z M29.1,39.2"/>
	<path fill-rule="evenodd" clip-rule="evenodd" fill="#8CA0A7" d="M33.4,39.6c0,0.4-0.3,0.7-0.7,0.7c-0.4,0-0.7-0.3-0.7-0.7v-29
		c0-0.4,0.3-0.7,0.7-0.7c0.4,0,0.7,0.3,0.7,0.7V39.6z M33.4,39.6"/>
	<path fill-rule="evenodd" clip-rule="evenodd" fill="#8CA0A7" d="M20.4,39.9c0,0.4-0.3,0.7-0.7,0.7c-0.4,0-0.7-0.3-0.7-0.7V16
		c0-0.4,0.3-0.7,0.7-0.7c0.4,0,0.7,0.3,0.7,0.7V39.9z M20.4,39.9"/>
	<path fill-rule="evenodd" clip-rule="evenodd" fill="#8CA0A7" d="M18.9,39.9c0-0.4,0.3-0.7,0.7-0.7c0.4,0,0.7,0.3,0.7,0.7
		c0,1.6,0.7,3,1.7,4.1c1,1,2.5,1.7,4.1,1.7c1.6,0,3-0.7,4.1-1.7c1.1-1.1,1.7-2.5,1.7-4.1c0-0.4,0.3-0.7,0.7-0.7
		c0.4,0,0.7,0.3,0.7,0.7c0,2-0.8,3.8-2.1,5.1c-1.3,1.3-3.1,2.1-5.1,2.1c-2,0-3.8-0.8-5.1-2.1C19.7,43.7,18.9,41.9,18.9,39.9
		L18.9,39.9z M18.9,39.9"/>
	<path fill-rule="evenodd" clip-rule="evenodd" fill="#8CA0A7" d="M16,10.2c0,0.4-0.3,0.7-0.7,0.7c-0.4,0-0.7-0.3-0.7-0.7
		c0-2.6,1.1-4.9,2.8-6.6v0c1.7-1.7,4.1-2.8,6.7-2.8c2.6,0,4.9,1.1,6.6,2.8v0h0c1.7,1.7,2.8,4.1,2.8,6.6c0,0.4-0.3,0.7-0.7,0.7
		S32,10.6,32,10.2c0-2.2-0.9-4.2-2.3-5.6c-1.4-1.4-3.4-2.3-5.6-2.3c-2.2,0-4.2,0.9-5.6,2.3C16.9,6.1,16,8,16,10.2L16,10.2z M16,10.2
		"/>
	<path fill-rule="evenodd" clip-rule="evenodd" fill="#8CA0A7" d="M16,40.7c0,0.4-0.3,0.7-0.7,0.7c-0.4,0-0.7-0.3-0.7-0.7V10.2
		c0-0.4,0.3-0.7,0.7-0.7c0.4,0,0.7,0.3,0.7,0.7V40.7z M16,40.7"/>
</g>
</svg>
