<?xml version="1.0" encoding="utf-8"?>
<!-- Generator: Adobe Illustrator 18.1.1, SVG Export Plug-In . SVG Version: 6.00 Build 0)  -->
<svg version="1.1" id="Layer_1" xmlns="http://www.w3.org/2000/svg" xmlns:xlink="http://www.w3.org/1999/xlink" x="0px" y="0px"
	 viewBox="0 0 48 48" enable-background="new 0 0 48 48" xml:space="preserve">
<g>
	<g>
		<path fill="#8CA0A7" d="M40.6,35.4V3.9c0-1.9-1.6-3.5-3.5-3.5H10.9C9,0.4,7.4,2,7.4,3.9v40.2c0,1.9,1.6,3.5,3.5,3.5h19.2
			L40.6,35.4z M30.1,37.1c0-0.9,0.9-1.8,1.8-1.8h6.5L30.1,45V37.1z M38.9,33.6h-7c-1.9,0-3.5,1.6-3.5,3.5v8.7H10.9
			c-1.1,0-1.8-0.9-1.8-1.8V3.9c0-1,0.9-1.8,1.8-1.8h26.2c1,0,1.7,0.9,1.7,1.8V33.6z M38.9,3.9"/>
	</g>
	<g>
		<path fill="#8CA0A7" d="M31.5,10.1H16.5c-0.5,0-0.8,0.4-0.8,0.8c0,0.5,0.4,0.8,0.8,0.8h14.9c0.5,0,0.8-0.4,0.8-0.8
			C32.3,10.5,31.9,10.1,31.5,10.1L31.5,10.1z M31.5,10.1"/>
		<path fill="#8CA0A7" d="M31.5,15.2H16.5c-0.5,0-0.8,0.4-0.8,0.8c0,0.5,0.4,0.8,0.8,0.8h14.9c0.5,0,0.8-0.4,0.8-0.8
			C32.3,15.5,31.9,15.2,31.5,15.2L31.5,15.2z M31.5,15.2"/>
		<path fill="#8CA0A7" d="M31.5,20.2H16.5c-0.5,0-0.8,0.4-0.8,0.8s0.4,0.8,0.8,0.8h14.9c0.5,0,0.8-0.4,0.8-0.8S31.9,20.2,31.5,20.2
			L31.5,20.2z M31.5,20.2"/>
		<path fill="#8CA0A7" d="M31.5,25.2H16.5c-0.5,0-0.8,0.4-0.8,0.8s0.4,0.8,0.8,0.8h14.9c0.5,0,0.8-0.4,0.8-0.8S31.9,25.2,31.5,25.2
			L31.5,25.2z M31.5,25.2"/>
	</g>
</g>
</svg>
