<?xml version="1.0" encoding="utf-8"?>
<!-- Generator: Adobe Illustrator 18.1.1, SVG Export Plug-In . SVG Version: 6.00 Build 0)  -->
<svg version="1.1" id="Layer_1" xmlns="http://www.w3.org/2000/svg" xmlns:xlink="http://www.w3.org/1999/xlink" x="0px" y="0px"
	 viewBox="0 0 48 48" enable-background="new 0 0 48 48" xml:space="preserve">
<path fill="#84979D" d="M5.1,10.6c0-2,0.6-3.9,1.6-5.5c0.2,0,0.4,0.1,0.6,0.1c1.3,0,2.4-1.1,2.4-2.4c0-1.3-1.1-2.4-2.4-2.4
	c-1.3,0-2.4,1.1-2.4,2.4c0,0.3,0.1,0.7,0.2,0.9c-1.3,2-2,4.3-2,6.9H5.1z M23.7,5.2c0.3,0,0.5-0.1,0.8-0.1c0.9,1.4,1.5,3.1,1.6,4.8
	c0,0.2,0,0.5,0,0.7h2.1c0-0.3,0-0.6,0-0.9C28,7.4,27.2,5.3,26,3.5C26,3.2,26.1,3,26.1,2.8c0-1.3-1.1-2.4-2.4-2.4
	c-1.3,0-2.4,1.1-2.4,2.4C21.3,4.1,22.4,5.2,23.7,5.2z M38.8,23.5c-3.5,0-6.3,2.8-6.3,6.3c0,3.1,2.2,5.6,5.1,6.2
	c-0.5,5.3-5,9.5-10.4,9.5c-5.5,0-10.1-4.3-10.5-9.8c0-0.2,0-0.5,0-0.7v-5c6.5-0.5,11.5-6,11.5-12.6v-4.8h-2.1v4.8
	c0,5.8-4.7,10.5-10.5,10.5C10,28,5.5,23.7,5.1,18.2c0-0.2,0-0.5,0-0.7v-4.8H3v4.8c0,0.3,0,0.6,0,0.9C3.4,24.6,8.4,29.5,14.5,30v5
	c0,0.3,0,0.6,0,0.9c0.5,6.6,5.9,11.7,12.6,11.7c6.6,0,12.1-5.1,12.6-11.6c3-0.5,5.3-3.1,5.3-6.2C45,26.4,42.2,23.5,38.8,23.5z
	 M38.8,34c-2.3,0-4.1-1.9-4.1-4.1c0-2.3,1.9-4.1,4.1-4.2c2.3,0,4.1,1.9,4.2,4.2C42.9,32.1,41.1,34,38.8,34z"/>
</svg>
