<?xml version="1.0" encoding="utf-8"?>
<!-- Generator: Adobe Illustrator 18.1.1, SVG Export Plug-In . SVG Version: 6.00 Build 0)  -->
<svg version="1.1" id="Layer_1" xmlns="http://www.w3.org/2000/svg" xmlns:xlink="http://www.w3.org/1999/xlink" x="0px" y="0px"
	 viewBox="0 0 48 48" enable-background="new 0 0 48 48" xml:space="preserve">
<g>
	<path fill="#84979D" d="M18.4,36.3c-9.8,0-17.7-7.9-17.7-17.7S8.7,0.8,18.4,0.8c9.8,0,17.7,7.9,17.7,17.7S28.2,36.3,18.4,36.3z
		 M18.4,2.4C9.5,2.4,2.3,9.7,2.3,18.6s7.2,16.1,16.1,16.1c8.9,0,16.1-7.2,16.1-16.1S27.4,2.4,18.4,2.4z"/>
	<path fill="#84979D" d="M32.2,33.1c-0.2,0-0.4-0.1-0.6-0.2l-1.6-1.6c-0.3-0.3-0.3-0.8,0-1.1c0.3-0.3,0.8-0.3,1.1,0l1.6,1.6
		c0.3,0.3,0.3,0.8,0,1.1C32.6,33.1,32.4,33.1,32.2,33.1z"/>
	<path fill="#84979D" d="M42.6,47.2h-0.3L29.4,34.4l5-5l12.8,12.8v0.3C47.3,45.1,45.2,47.2,42.6,47.2z M31.7,34.4l11.2,11.2
		c1.5-0.1,2.6-1.3,2.8-2.8L34.5,31.6L31.7,34.4z"/>
</g>
</svg>
