<?xml version="1.0" encoding="utf-8"?>
<!-- Generator: Adobe Illustrator 18.1.1, SVG Export Plug-In . SVG Version: 6.00 Build 0)  -->
<svg version="1.1" id="Layer_1" xmlns="http://www.w3.org/2000/svg" xmlns:xlink="http://www.w3.org/1999/xlink" x="0px" y="0px"
	 viewBox="488 360 48 48" enable-background="new 488 360 48 48" xml:space="preserve">
<path fill="#8FCDBE" d="M493,370.5c0-2,0.6-3.9,1.6-5.5c0.2,0,0.4,0.1,0.6,0.1c1.3,0,2.4-1.1,2.4-2.4s-1.1-2.4-2.4-2.4
	s-2.4,1.1-2.4,2.4c0,0.3,0.1,0.7,0.2,0.9c-1.3,2-2,4.3-2,6.9H493z M511.7,365.1c0.3,0,0.5-0.1,0.8-0.1c0.9,1.4,1.5,3.1,1.6,4.8
	c0,0.2,0,0.5,0,0.7h2.1c0-0.3,0-0.6,0-0.9c-0.2-2.3-1-4.4-2.2-6.2c0-0.3,0.1-0.5,0.1-0.7c0-1.3-1.1-2.4-2.4-2.4s-2.4,1.1-2.4,2.4
	S510.4,365.1,511.7,365.1z M526.9,383.5c-3.5,0-6.3,2.8-6.3,6.3c0,3.1,2.2,5.6,5.1,6.2c-0.5,5.3-5,9.5-10.4,9.5
	c-5.5,0-10.1-4.3-10.5-9.8c0-0.2,0-0.5,0-0.7v-5c6.5-0.5,11.5-6,11.5-12.6v-4.8h-2.1v4.8c0,5.8-4.7,10.5-10.5,10.5
	c-5.6,0.1-10.1-4.2-10.5-9.7c0-0.2,0-0.5,0-0.7v-4.8h-2.1v4.8c0,0.3,0,0.6,0,0.9c0.4,6.2,5.4,11.1,11.5,11.6v5c0,0.3,0,0.6,0,0.9
	c0.5,6.6,5.9,11.7,12.6,11.7c6.6,0,12.1-5.1,12.6-11.6c3-0.5,5.3-3.1,5.3-6.2C533.1,386.4,530.3,383.5,526.9,383.5z M526.9,394
	c-2.3,0-4.1-1.9-4.1-4.1c0-2.3,1.9-4.1,4.1-4.2c2.3,0,4.1,1.9,4.2,4.2C531,392.1,529.2,394,526.9,394z"/>
</svg>
