<?xml version="1.0" encoding="utf-8"?>
<!-- Generator: Adobe Illustrator 18.1.1, SVG Export Plug-In . SVG Version: 6.00 Build 0)  -->
<svg version="1.1" id="Layer_1" xmlns="http://www.w3.org/2000/svg" xmlns:xlink="http://www.w3.org/1999/xlink" x="0px" y="0px"
	 viewBox="0 0 48 48" enable-background="new 0 0 48 48" xml:space="preserve">
<g>
	<path fill="#84979D" d="M26.8,0.6c0.9,0,1.9,0.4,2.6,1.1l17,17c0.7,0.7,1.1,1.6,1.1,2.6c0,1-0.4,1.9-1.1,2.6L23.7,46.4
		c-0.7,0.7-1.6,1.1-2.6,1.1l-17,0c-2,0-3.6-1.6-3.6-3.6l0-17c0-1,0.4-1.9,1.1-2.6L24.3,1.6C25,0.9,25.9,0.6,26.8,0.6L26.8,0.6z
		 M21.2,45.9c0.6,0,1.1-0.2,1.5-0.6l22.7-22.7c0.4-0.4,0.6-0.9,0.6-1.5c0-0.5-0.2-1.1-0.6-1.5l-17-17c-0.8-0.8-2.1-0.8-2.9,0
		L2.7,25.4c-0.4,0.4-0.6,0.9-0.6,1.5l0,17c0,1.1,0.9,2.1,2.1,2.1L21.2,45.9z M8.4,36c2,0,3.6,1.6,3.6,3.6c0,2-1.6,3.6-3.6,3.6
		c-2,0-3.6-1.6-3.6-3.6C4.8,37.6,6.4,36,8.4,36L8.4,36z M8.4,41.6c1.1,0,2.1-0.9,2.1-2.1c0-1.1-0.9-2.1-2.1-2.1
		c-1.1,0-2.1,0.9-2.1,2.1C6.4,40.7,7.3,41.6,8.4,41.6L8.4,41.6z M8.4,41.6"/>
</g>
</svg>
