<?xml version="1.0" encoding="utf-8"?>
<!-- Generator: Adobe Illustrator 18.1.1, SVG Export Plug-In . SVG Version: 6.00 Build 0)  -->
<svg version="1.1" id="Layer_1" xmlns="http://www.w3.org/2000/svg" xmlns:xlink="http://www.w3.org/1999/xlink" x="0px" y="0px"
	 viewBox="488 344.4 48 78.4" enable-background="new 488 344.4 48 78.4" xml:space="preserve">
<g>
	<path fill="#84979D" d="M535.4,345.7c-0.3-0.3-0.7-0.5-1.1-0.5h-44.2c-0.5,0-0.8,0.2-1.1,0.5c-0.5,0.3-0.7,0.8-0.7,1.3v2.1V382
		c0,0.2,0,0.2,0,0.2v0.2c0,11.4,9.9,20.4,22,21.2c0,0,0.5,0,0.7,0c0,0,0,1.6,0,3.7c-2.1,0.5-3.9,2.4-3.9,4.7s1.6,4.2,3.7,4.7l0,0
		v3.7c0,1,0.5,1.5,1.1,1.5s1.1-0.5,1.1-1.5v-3.7l0,0c2.1-0.5,3.6-2.4,3.6-4.7s-1.5-4.1-3.6-4.7c0-2.3,0-3.9,0-3.9s0.5,0,0.7,0
		c12.2-0.8,22-9.8,22-21.2v-35.4C535.8,346.5,535.7,346,535.4,345.7z M514.8,412.2c0,1.5-1.1,2.8-2.8,2.8c-1.6,0-2.8-1.1-2.8-2.8
		c0-1.5,1.1-2.8,2.8-2.8C513.7,409.4,514.8,410.7,514.8,412.2z M533.6,382.3c0,9.3-9.3,18.3-20,18.9c-0.3,0-1.1,0-1.5,0
		c-0.3,0-1.3,0-1.5,0c-10.8-0.7-20-9.6-20-18.9l0,0l0,0l0,0v-33.1v-1.6h43V382.3z"/>
	<path fill="#84979D" d="M501.1,363.4h12.2c0.7,0,1.1-0.5,1.1-1.1l0,0c0-0.7-0.5-1.1-1.1-1.1h-12.2c-0.7,0-1.1,0.5-1.1,1.1l0,0
		C499.8,362.9,500.5,363.4,501.1,363.4z"/>
	<path fill="#84979D" d="M501.1,370.6h12.2c0.7,0,1.1-0.5,1.1-1.1l0,0c0-0.7-0.5-1.1-1.1-1.1h-12.2c-0.7,0-1.1,0.5-1.1,1.1l0,0
		C499.8,370.1,500.5,370.6,501.1,370.6z"/>
	<path fill="#84979D" d="M501.1,377.8h12.2c0.7,0,1.1-0.5,1.1-1.1l0,0c0-0.7-0.5-1.1-1.1-1.1h-12.2c-0.7,0-1.1,0.5-1.1,1.1l0,0
		C499.8,377.1,500.5,377.8,501.1,377.8z"/>
	<path fill="#84979D" d="M501.1,384.8h12.2c0.7,0,1.1-0.5,1.1-1.1l0,0c0-0.7-0.5-1.1-1.1-1.1h-12.2c-0.7,0-1.1,0.5-1.1,1.1l0,0
		C499.8,384.3,500.5,384.8,501.1,384.8z"/>
</g>
</svg>
