<?xml version="1.0" encoding="utf-8"?>
<!-- Generator: Adobe Illustrator 18.1.1, SVG Export Plug-In . SVG Version: 6.00 Build 0)  -->
<svg version="1.1" id="Layer_1" xmlns="http://www.w3.org/2000/svg" xmlns:xlink="http://www.w3.org/1999/xlink" x="0px" y="0px"
	 viewBox="0 0 48 48" enable-background="new 0 0 48 48" xml:space="preserve">
<g>
	<path fill="#84979D" d="M41.3,5.8H30.1V4.5c0-2.2-1.9-3.9-4.3-3.9h-3.5c-2.4,0-4.3,1.8-4.3,3.9v1.3H6.7c-2.4,0-4.3,1.9-4.3,4.3v2.6
		c0,0.5,0.4,0.9,0.9,0.9h1.7c0,0,0,0.1,0,0.1L8,43.2c0.2,2.3,2.4,4.2,4.7,4.2h22.5c2.3,0,4.4-1.9,4.7-4.2l3.1-29.5c0,0,0-0.1,0-0.1
		h1.7c0.5,0,0.9-0.4,0.9-0.9v-2.6C45.7,7.7,43.7,5.8,41.3,5.8z M19.7,4.5c0-1.2,1.2-2.2,2.6-2.2h3.5c1.4,0,2.6,1,2.6,2.2v1.3h-8.7
		V4.5z M38.2,43c-0.2,1.4-1.5,2.7-3,2.7H12.7c-1.5,0-2.8-1.2-3-2.7L6.7,13.6h34.7L38.2,43z M43.9,11.9H4.1v-1.7
		c0-1.4,1.2-2.6,2.6-2.6h34.7c1.4,0,2.6,1.2,2.6,2.6V11.9z"/>
	<path fill="#84979D" d="M16.2,41.3c0.5,0,0.9-0.4,0.9-0.9V18.8c0-0.5-0.4-0.9-0.9-0.9c-0.5,0-0.9,0.4-0.9,0.9v21.7
		C15.3,41,15.7,41.3,16.2,41.3z"/>
	<path fill="#84979D" d="M24,41.3c0.5,0,0.9-0.4,0.9-0.9V18.8c0-0.5-0.4-0.9-0.9-0.9c-0.5,0-0.9,0.4-0.9,0.9v21.7
		C23.1,41,23.5,41.3,24,41.3z"/>
	<path fill="#84979D" d="M31.8,41.3c0.5,0,0.9-0.4,0.9-0.9V18.8c0-0.5-0.4-0.9-0.9-0.9c-0.5,0-0.9,0.4-0.9,0.9v21.7
		C30.9,41,31.3,41.3,31.8,41.3z"/>
</g>
</svg>
