<?xml version="1.0" encoding="utf-8"?>
<!-- Generator: Adobe Illustrator 18.1.1, SVG Export Plug-In . SVG Version: 6.00 Build 0)  -->
<svg version="1.1" id="Layer_1" xmlns="http://www.w3.org/2000/svg" xmlns:xlink="http://www.w3.org/1999/xlink" x="0px" y="0px"
	 viewBox="0 0 48 48" enable-background="new 0 0 48 48" xml:space="preserve">
<g>
	<path fill="#84979D" d="M43.1,4.9H37V3.1c0-1.4-1.2-2.6-2.6-2.6h-0.9c-1.4,0-2.6,1.2-2.6,2.6v1.7H17V3.1c0-1.4-1.2-2.6-2.6-2.6
		h-0.9c-1.4,0-2.6,1.2-2.6,2.6v1.7H4.9c-2.4,0-4.3,1.9-4.3,4.3v33.9c0,2.4,1.9,4.3,4.3,4.3h38.2c2.4,0,4.3-1.9,4.3-4.3V9.2
		C47.5,6.8,45.5,4.9,43.1,4.9z M4.9,6.6H11v1.7c0,1.4,1.2,2.6,2.6,2.6h2.6c0.5,0,0.9-0.4,0.9-0.9c0-0.5-0.4-0.9-0.9-0.9h-2.6
		c-0.5,0-0.9-0.4-0.9-0.9V3.1c0-0.5,0.4-0.9,0.9-0.9h0.9c0.5,0,0.9,0.4,0.9,0.9v1.7c-0.5,0-0.9,0.4-0.9,0.9c0,0.5,0.4,0.9,0.9,0.9
		H31v1.7c0,1.4,1.2,2.6,2.6,2.6h2.6c0.5,0,0.9-0.4,0.9-0.9c0-0.5-0.4-0.9-0.9-0.9h-2.6c-0.5,0-0.9-0.4-0.9-0.9V3.1
		c0-0.5,0.4-0.9,0.9-0.9h0.9c0.5,0,0.9,0.4,0.9,0.9v1.7c-0.5,0-0.9,0.4-0.9,0.9c0,0.5,0.4,0.9,0.9,0.9h7.8c1.4,0,2.6,1.2,2.6,2.6v7
		H2.3v-7C2.3,7.8,3.4,6.6,4.9,6.6z M43.1,45.7H4.9c-1.4,0-2.6-1.2-2.6-2.6V17.9h43.5v25.2C45.7,44.6,44.6,45.7,43.1,45.7z"/>
</g>
</svg>
