<?xml version="1.0" encoding="utf-8"?>
<!-- Generator: Adobe Illustrator 18.1.1, SVG Export Plug-In . SVG Version: 6.00 Build 0)  -->
<svg version="1.1" id="Layer_1" xmlns="http://www.w3.org/2000/svg" xmlns:xlink="http://www.w3.org/1999/xlink" x="0px" y="0px"
	 viewBox="0 0 48 48" enable-background="new 0 0 48 48" xml:space="preserve">
<g>
	<g>
		<g>
			<path fill="#84979D" d="M1.4,42.9c-0.2,0-0.5-0.1-0.6-0.3l0,0c-0.2-0.2-0.3-0.4-0.3-0.6l0,0V6c0-0.2,0.1-0.5,0.3-0.6l0,0
				c0.2-0.2,0.4-0.3,0.6-0.3l0,0H24c0.2,0,0.5,0.1,0.6,0.3l0,0c0.2,0.2,0.3,0.4,0.3,0.6l0,0v36c0,0.2-0.1,0.5-0.3,0.6l0,0
				c-0.2,0.2-0.4,0.3-0.6,0.3l0,0H1.4z M23.1,41.1V6.9H2.3v34.2H23.1z M1.4,6.9V6V6.9L1.4,6.9z"/>
		</g>
		<g>
			<g>
				<path fill="#84979D" d="M15.8,17V9c0-0.5,0.4-0.9,0.9-0.9l0,0c0.5,0,0.9,0.4,0.9,0.9l0,0V17c0,0.5-0.4,0.9-0.9,0.9l0,0
					C16.2,17.9,15.8,17.5,15.8,17L15.8,17z"/>
			</g>
			<g>
				<g>
					<path fill="#84979D" d="M7.8,17V9c0-0.5,0.4-0.9,0.9-0.9l0,0c0.5,0,0.9,0.4,0.9,0.9l0,0V17c0,0.5-0.4,0.9-0.9,0.9l0,0
						C8.2,17.9,7.8,17.5,7.8,17L7.8,17z"/>
				</g>
				<g>
					<path fill="#84979D" d="M8.7,13.9c-0.5,0-0.9-0.4-0.9-0.9l0,0c0-0.5,0.4-0.9,0.9-0.9l0,0h7.9c0.5,0,0.9,0.4,0.9,0.9l0,0
						c0,0.5-0.4,0.9-0.9,0.9l0,0H8.7L8.7,13.9z"/>
				</g>
			</g>
		</g>
		<g>
			<g>
				<path fill="#84979D" d="M5.7,27c-0.2,0-0.5-0.1-0.6-0.3l0,0c-0.2-0.2-0.3-0.4-0.3-0.6l0,0v-4.8c0-0.2,0.1-0.5,0.3-0.6l0,0
					c0.2-0.2,0.4-0.3,0.6-0.3l0,0h4.8c0.2,0,0.5,0.1,0.6,0.3l0,0c0.2,0.2,0.3,0.4,0.3,0.6l0,0v4.8c0,0.2-0.1,0.5-0.3,0.6l0,0
					C11,26.9,10.8,27,10.6,27l0,0H5.7L5.7,27z M10.6,26.1v-0.9V26.1L10.6,26.1z M6.7,25.2h3v-3h-3V25.2L6.7,25.2z"/>
			</g>
			<g>
				<path fill="#84979D" d="M14.8,27c-0.2,0-0.5-0.1-0.6-0.3l0,0c-0.2-0.2-0.3-0.4-0.3-0.6l0,0v-4.8c0-0.2,0.1-0.5,0.3-0.6l0,0
					c0.2-0.2,0.4-0.3,0.6-0.3l0,0h4.8c0.2,0,0.5,0.1,0.6,0.3l0,0c0.2,0.2,0.3,0.4,0.3,0.6l0,0v4.8c0,0.2-0.1,0.5-0.3,0.6l0,0
					c-0.2,0.2-0.4,0.3-0.6,0.3l0,0H14.8L14.8,27z M19.7,26.1v-0.9V26.1L19.7,26.1z M15.7,25.2h3v-3h-3V25.2L15.7,25.2z"/>
			</g>
			<g>
				<path fill="#84979D" d="M5.7,34.9c-0.2,0-0.5-0.1-0.6-0.3l0,0c-0.2-0.2-0.3-0.4-0.3-0.6l0,0v-4.8c0-0.2,0.1-0.5,0.3-0.6l0,0
					c0.2-0.2,0.4-0.3,0.6-0.3l0,0h4.8c0.2,0,0.5,0.1,0.6,0.3l0,0c0.2,0.2,0.3,0.4,0.3,0.6l0,0V34c0,0.2-0.1,0.5-0.3,0.6l0,0
					c-0.2,0.2-0.4,0.3-0.6,0.3l0,0H5.7L5.7,34.9z M10.6,34v-0.9V34L10.6,34z M6.7,33.1h3v-3h-3V33.1L6.7,33.1z"/>
			</g>
			<g>
				<path fill="#84979D" d="M14.8,34.9c-0.2,0-0.5-0.1-0.6-0.3l0,0c-0.2-0.2-0.3-0.4-0.3-0.6l0,0v-4.8c0-0.2,0.1-0.5,0.3-0.6l0,0
					c0.2-0.2,0.4-0.3,0.6-0.3l0,0h4.8c0.2,0,0.5,0.1,0.6,0.3l0,0c0.2,0.2,0.3,0.4,0.3,0.6l0,0V34c0,0.2-0.1,0.5-0.3,0.6l0,0
					c-0.2,0.2-0.4,0.3-0.6,0.3l0,0H14.8L14.8,34.9z M19.7,34v-0.9V34L19.7,34z M15.7,33.1h3v-3h-3V33.1L15.7,33.1z"/>
			</g>
		</g>
	</g>
	<g>
		<g>
			<path fill="#84979D" d="M24,42.9c-0.2,0-0.5-0.1-0.6-0.3l0,0c-0.2-0.2-0.3-0.4-0.3-0.6l0,0V16.5c0-0.2,0.1-0.5,0.3-0.6l0,0
				c0.2-0.2,0.4-0.3,0.6-0.3l0,0h22.6c0.2,0,0.5,0.1,0.6,0.3l0,0c0.2,0.2,0.3,0.4,0.3,0.6l0,0V42c0,0.2-0.1,0.5-0.3,0.6l0,0
				c-0.2,0.2-0.4,0.3-0.6,0.3l0,0H24z M45.7,41.1V17.4H24.9v23.7H45.7z M24,17.4v-0.9V17.4L24,17.4z"/>
		</g>
		<g>
			<g>
				<path fill="#84979D" d="M28.3,28.6c-0.2,0-0.5-0.1-0.6-0.3l0,0c-0.2-0.2-0.3-0.4-0.3-0.6l0,0v-4.8c0-0.2,0.1-0.5,0.3-0.6l0,0
					c0.2-0.2,0.4-0.3,0.6-0.3l0,0h4.8c0.2,0,0.5,0.1,0.6,0.3l0,0c0.2,0.2,0.3,0.4,0.3,0.6l0,0v4.8c0,0.2-0.1,0.5-0.3,0.6l0,0
					c-0.2,0.2-0.4,0.3-0.6,0.3l0,0H28.3L28.3,28.6z M33.2,27.7v-0.9V27.7L33.2,27.7z M29.2,26.8h3v-3h-3V26.8L29.2,26.8z"/>
			</g>
			<g>
				<path fill="#84979D" d="M37.4,28.6c-0.2,0-0.5-0.1-0.6-0.3l0,0c-0.2-0.2-0.3-0.4-0.3-0.6l0,0v-4.8c0-0.2,0.1-0.5,0.3-0.6l0,0
					c0.2-0.2,0.4-0.3,0.6-0.3l0,0h4.8c0.2,0,0.5,0.1,0.6,0.3l0,0c0.2,0.2,0.3,0.4,0.3,0.6l0,0v4.8c0,0.2-0.1,0.5-0.3,0.6l0,0
					c-0.2,0.2-0.4,0.3-0.6,0.3l0,0H37.4L37.4,28.6z M42.3,27.7v-0.9V27.7L42.3,27.7z M38.3,26.8h3v-3h-3V26.8L38.3,26.8z"/>
			</g>
			<g>
				<path fill="#84979D" d="M28.3,36.6c-0.2,0-0.5-0.1-0.6-0.3l0,0c-0.2-0.2-0.3-0.4-0.3-0.6l0,0v-4.8c0-0.2,0.1-0.5,0.3-0.6l0,0
					c0.2-0.2,0.4-0.3,0.6-0.3l0,0h4.8c0.2,0,0.5,0.1,0.6,0.3l0,0c0.2,0.2,0.3,0.4,0.3,0.6l0,0v4.8c0,0.2-0.1,0.5-0.3,0.6l0,0
					c-0.2,0.2-0.4,0.3-0.6,0.3l0,0H28.3L28.3,36.6z M33.2,35.7v-0.9V35.7L33.2,35.7z M29.2,34.8h3v-3h-3V34.8L29.2,34.8z"/>
			</g>
			<g>
				<path fill="#84979D" d="M37.4,36.6c-0.2,0-0.5-0.1-0.6-0.3l0,0c-0.2-0.2-0.3-0.4-0.3-0.6l0,0v-4.8c0-0.2,0.1-0.5,0.3-0.6l0,0
					c0.2-0.2,0.4-0.3,0.6-0.3l0,0h4.8c0.2,0,0.5,0.1,0.6,0.3l0,0c0.2,0.2,0.3,0.4,0.3,0.6l0,0v4.8c0,0.2-0.1,0.5-0.3,0.6l0,0
					c-0.2,0.2-0.4,0.3-0.6,0.3l0,0H37.4L37.4,36.6z M42.3,35.7v-0.9V35.7L42.3,35.7z M38.3,34.8h3v-3h-3V34.8L38.3,34.8z"/>
			</g>
		</g>
	</g>
</g>
</svg>
