<?xml version="1.0" encoding="utf-8"?>
<!-- Generator: Adobe Illustrator 18.1.1, SVG Export Plug-In . SVG Version: 6.00 Build 0)  -->
<svg version="1.1" id="Capa_1" xmlns="http://www.w3.org/2000/svg" xmlns:xlink="http://www.w3.org/1999/xlink" x="0px" y="0px"
	 viewBox="38.9 361.1 48 48" enable-background="new 38.9 361.1 48 48" xml:space="preserve">
<g>
	<g>
		<rect x="51.3" y="397.4" fill="#8CA0A7" width="23.1" height="1.5"/>
		<rect x="51.3" y="402.1" fill="#8CA0A7" width="23.1" height="1.5"/>
		<circle fill="#8CA0A7" cx="76" cy="383.6" r="1.5"/>
		<path fill="#8CA0A7" d="M80.6,375.9h-3.1v-10.8c0-1.7-1.4-3.1-3.1-3.1H51.3c-1.7,0-3.1,1.4-3.1,3.1v10.8h-3.1
			c-2.6,0-4.6,2-4.6,4.6v13.9c0,2.6,2,4.6,4.6,4.6h3.1v6.2c0,1.7,1.4,3.1,3.1,3.1h23.1c1.7,0,3.1-1.4,3.1-3.1V399h3.1
			c2.6,0,4.6-2,4.6-4.6v-13.9C85.2,377.9,83.2,375.9,80.6,375.9z M49.8,365.1c0-0.8,0.6-1.5,1.5-1.5h23.1c0.8,0,1.5,0.6,1.5,1.5
			v10.8H49.8V365.1z M76,405.1c0,0.8-0.6,1.5-1.5,1.5H51.3c-0.8,0-1.5-0.6-1.5-1.5v-10.8H76V405.1z M83.7,394.4
			c0,1.7-1.4,3.1-3.1,3.1h-3.1v-4.6H48.2v4.6h-3.1c-1.7,0-3.1-1.4-3.1-3.1v-13.9c0-1.7,1.4-3.1,3.1-3.1h35.4c1.7,0,3.1,1.4,3.1,3.1
			L83.7,394.4L83.7,394.4z"/>
	</g>
</g>
</svg>
