<?xml version="1.0" encoding="utf-8"?>
<!-- Generator: Adobe Illustrator 18.1.1, SVG Export Plug-In . SVG Version: 6.00 Build 0)  -->
<svg version="1.1" id="Layer_1" xmlns="http://www.w3.org/2000/svg" xmlns:xlink="http://www.w3.org/1999/xlink" x="0px" y="0px"
	 viewBox="488 360 48 48" enable-background="new 488 360 48 48" xml:space="preserve">
<g>
	<path fill="#84979D" d="M526.4,360.6c-0.2-0.2-0.4-0.3-0.7-0.3h-27.3c-0.3,0-0.5,0.1-0.7,0.3c-0.3,0.2-0.4,0.5-0.4,0.8v1.3V383
		c0,0.1,0,0.1,0,0.1v0.1c0,7,6.1,12.6,13.6,13.1c0,0,0.3,0,0.4,0c0,0,0,1,0,2.3c-1.3,0.3-2.4,1.5-2.4,2.9s1,2.6,2.3,2.9l0,0v2.3
		c0,0.6,0.3,0.9,0.7,0.9c0.4,0,0.7-0.3,0.7-0.9v-2.3l0,0c1.3-0.3,2.2-1.5,2.2-2.9s-0.9-2.5-2.2-2.9c0-1.4,0-2.4,0-2.4s0.3,0,0.4,0
		c7.6-0.5,13.6-6,13.6-13.1v-21.9C526.6,360.9,526.6,360.8,526.4,360.6z M513.6,401.7c0,0.9-0.7,1.7-1.7,1.7s-1.7-0.7-1.7-1.7
		c0-0.9,0.7-1.7,1.7-1.7S513.6,400.8,513.6,401.7z M525.3,383.2c0,5.7-5.7,11.3-12.4,11.7c-0.2,0-0.7,0-0.9,0c-0.2,0-0.8,0-0.9,0
		c-6.6-0.4-12.4-5.9-12.4-11.7l0,0l0,0l0,0v-20.4v-1h26.6V383.2z"/>
	<path fill="#84979D" d="M505.3,371.6h7.6c0.4,0,0.7-0.3,0.7-0.7l0,0c0-0.4-0.3-0.7-0.7-0.7h-7.6c-0.4,0-0.7,0.3-0.7,0.7l0,0
		C504.5,371.3,504.9,371.6,505.3,371.6z"/>
	<path fill="#84979D" d="M505.3,376h7.6c0.4,0,0.7-0.3,0.7-0.7l0,0c0-0.4-0.3-0.7-0.7-0.7h-7.6c-0.4,0-0.7,0.3-0.7,0.7l0,0
		C504.5,375.7,504.9,376,505.3,376z"/>
	<path fill="#84979D" d="M505.3,380.4h7.6c0.4,0,0.7-0.3,0.7-0.7l0,0c0-0.4-0.3-0.7-0.7-0.7h-7.6c-0.4,0-0.7,0.3-0.7,0.7l0,0
		C504.5,380,504.9,380.4,505.3,380.4z"/>
	<path fill="#84979D" d="M505.3,384.8h7.6c0.4,0,0.7-0.3,0.7-0.7l0,0c0-0.4-0.3-0.7-0.7-0.7h-7.6c-0.4,0-0.7,0.3-0.7,0.7l0,0
		C504.5,384.5,504.9,384.8,505.3,384.8z"/>
</g>
</svg>
