<?xml version="1.0" encoding="utf-8"?>
<!-- Generator: Adobe Illustrator 18.1.1, SVG Export Plug-In . SVG Version: 6.00 Build 0)  -->
<svg version="1.1" id="Layer_1" xmlns="http://www.w3.org/2000/svg" xmlns:xlink="http://www.w3.org/1999/xlink" x="0px" y="0px"
	 viewBox="0 0 48 48" enable-background="new 0 0 48 48" xml:space="preserve">
<g>
	<g>
		<path fill="#424242" d="M22.2,3.7l0.8-0.7c0.2-0.2,0.6-0.3,0.9-0.3s0.7,0.1,0.9,0.3l0.8,0.7h3.1l-2.8-2.1c-1.1-0.9-3-0.9-4.1,0
			l-2.8,2.1H22.2z"/>
		<path fill="#424242" d="M45.5,16.6l-1.9-1.4c0.3,0.7,0.5,1.5,0.6,2.2l0.1,0.7l0.1,0.1c0.1,0.1,0.3,0.2,0.4,0.4l-16.9,9.7l1.6,1.2
			l16-9.2c0,0.1,0,0.1,0,0.2v23.8c0,0,0,0,0,0l-19.4-15c-1.1-0.9-3-0.9-4.1,0l-19.4,15c0,0,0,0,0,0V20.4c0,0,0,0,0,0l15.9,9.2
			l1.6-1.2L3.2,18.6c0.1-0.2,0.3-0.4,0.4-0.5L3.7,18v-2.4l-1.3,1c-1.1,0.8-1.8,2.4-1.8,3.8v23.8c0,1.5,1.3,2.8,2.8,2.8h41.1
			c1.5,0,2.8-1.3,2.8-2.8V20.4C47.4,19.1,46.6,17.4,45.5,16.6z M4.3,45.1l18.7-14.4c0.5-0.4,1.4-0.4,1.8,0l18.7,14.4H4.3z"/>
	</g>
	<path fill="#424242" d="M7.5,18.9V8.6c0-0.5,0.4-0.9,0.9-0.9h21.7c0.3,0,0.6,0.1,0.9,0.2l0,6.6c0,1.5,1.3,2.8,2.8,2.8h6.6
		c0.1,0.3,0.2,0.7,0.2,0.9v0.7l1.8-1.1c-0.1-1.2-0.7-2.6-1.5-3.4c0,0,0,0,0-0.1l-6.9-6.9c-0.9-0.9-2.6-1.6-3.9-1.6H8.4
		C6.9,5.8,5.6,7,5.6,8.6v9.3L7.5,18.9z M39.2,15.3h-5.4c-0.5,0-0.9-0.4-0.9-0.9l0-5.4L39.2,15.3z"/>
</g>
</svg>
