<?xml version="1.0" encoding="utf-8"?>
<!-- Generator: Adobe Illustrator 18.1.1, SVG Export Plug-In . SVG Version: 6.00 Build 0)  -->
<svg version="1.1" id="Layer_1" xmlns="http://www.w3.org/2000/svg" xmlns:xlink="http://www.w3.org/1999/xlink" x="0px" y="0px"
	 viewBox="488 360 48 48" enable-background="new 488 360 48 48" xml:space="preserve">
<g>
	<g>
		<path fill="#495559" d="M512,407.6c-13,0-23.6-10.6-23.6-23.6s10.6-23.6,23.6-23.6s23.6,10.6,23.6,23.6S525,407.6,512,407.6
			L512,407.6z M512,362.2c-12,0-21.8,9.8-21.8,21.8c0,12,9.8,21.8,21.8,21.8c12,0,21.8-9.8,21.8-21.8C533.8,372,524,362.2,512,362.2
			L512,362.2z M512,362.2"/>
		<path fill="#495559" d="M514.3,372.1c0,1.3-0.9,2.3-2.4,2.3c-1.3,0-2.2-1-2.2-2.3c0-1.3,1-2.3,2.3-2.3
			C513.4,369.7,514.3,370.8,514.3,372.1L514.3,372.1z M510.2,398.2v-20.4h3.7v20.4H510.2z M510.2,398.2"/>
	</g>
</g>
</svg>
