<?xml version="1.0" encoding="utf-8"?>
<!-- Generator: Adobe Illustrator 18.1.1, SVG Export Plug-In . SVG Version: 6.00 Build 0)  -->
<svg version="1.1" id="Layer_1" xmlns="http://www.w3.org/2000/svg" xmlns:xlink="http://www.w3.org/1999/xlink" x="0px" y="0px"
	 viewBox="0 0 48 48" enable-background="new 0 0 48 48" xml:space="preserve">
<g>
	<path fill="#84979D" d="M36.4,22.9c0.3,0,0.6,0.1,0.8,0.3c0.4,0.4,0.4,1.1-0.1,1.5L12.3,47.3c-0.4,0.4-1.1,0.4-1.5-0.1
		c-0.4-0.4-0.4-1.1,0.1-1.5l24.8-22.5C35.9,23,36.2,22.9,36.4,22.9z"/>
	<path fill="#84979D" d="M11.6,0.5c0.3,0,0.5,0.1,0.7,0.3l24.8,22.5c0.4,0.4,0.5,1.1,0.1,1.5c-0.4,0.4-1.1,0.5-1.5,0.1L10.9,2.3
		c-0.4-0.4-0.5-1.1-0.1-1.5C11,0.6,11.3,0.5,11.6,0.5z"/>
</g>
</svg>
