<?xml version="1.0" encoding="utf-8"?>
<!-- Generator: Adobe Illustrator 18.1.1, SVG Export Plug-In . SVG Version: 6.00 Build 0)  -->
<svg version="1.1" id="Layer_1" xmlns="http://www.w3.org/2000/svg" xmlns:xlink="http://www.w3.org/1999/xlink" x="0px" y="0px"
	 viewBox="0 0 48 48" enable-background="new 0 0 48 48" xml:space="preserve">
<g>
	<path fill="#84979D" d="M47.5,39.2c-0.1-0.8-0.7-1.6-1.7-2.3l-10.4-7.1c-0.5-0.4-1.2-0.6-1.8-0.6c-1,0-1.9,0.5-2.5,1.3l-2.7,3.8
		c-0.2,0.3-0.3,0.7-0.3,1c-1,0.2-4,0.1-8.9-4.8c-4.7-4.7-7-8.2-6.7-10.4c0.1,0,0.1-0.1,0.1-0.1c0.2-0.1,0.5-0.2,0.7-0.3l3.7-2.8
		c1.3-1,1.6-3,0.6-4.4L10.2,2.4c-1.4-2-3.1-2.2-4.9-0.6c-1.1,1-3,3.3-3.8,4.8C1,7.3,0.8,8.1,0.9,8.9C0.6,10.1,0,13.4,1,18.1
		c1.4,6.4,5,12.5,10.9,18.2c9.8,9.5,18.5,10.9,22.7,10.9h0c2.5,0,4.3-0.5,5.1-0.8c0.8,0,1.5-0.2,2.2-0.6c1.4-0.8,3.7-2.8,4.6-4
		C47.3,40.9,47.6,40.1,47.5,39.2z M45.2,40.7c-0.8,1-3,2.9-4.2,3.6c-0.2,0.1-0.3,0.2-0.5,0.2c-1.2-0.5-3.3-1.6-3.9-2.4
		c-0.3-0.4-0.9-0.4-1.2-0.1c-0.4,0.3-0.4,0.9-0.1,1.2c0.6,0.7,1.6,1.4,2.6,1.9c-0.8,0.2-1.8,0.3-3.2,0.3h0c-4,0-12.1-1.4-21.5-10.4
		C-0.3,22.1,2.3,10.5,2.6,9.2c0-0.1,0-0.2,0-0.4C2.6,8.4,2.7,7.9,3,7.4C3.6,6.2,5.4,4,6.4,3.1c0.5-0.4,0.9-0.6,1.2-0.6
		c0.1,0,0.5,0,1.2,0.9l7.4,10.2c0.5,0.6,0.4,1.5-0.2,1.9l-3.7,2.8c0,0,0,0-0.1,0c-1-0.7-2.3-1.9-2.7-2.5c-0.3-0.4-0.8-0.5-1.2-0.3
		c-0.4,0.3-0.5,0.8-0.3,1.2c0.6,0.9,1.9,2,2.8,2.7c-0.7,2.9,1.5,6.7,7.1,12.3c4.5,4.5,7.7,5.4,9.7,5.4c0.9,0,1.5-0.2,1.8-0.4
		c0.2-0.1,0.4-0.4,0.4-0.6c0-0.1,0-0.3,0-0.5c0-0.1,0-0.3,0-0.4l2.6-3.7c0.4-0.6,1.3-0.7,1.9-0.3l10.4,7.1c0.6,0.4,0.9,0.8,0.9,1.1
		C45.8,39.8,45.6,40.2,45.2,40.7z"/>
	<path fill="#84979D" d="M23,10.9C29.8,13,35.1,18.2,37.2,25c0.1,0.4,0.5,0.6,0.8,0.6c0.1,0,0.2,0,0.3,0c0.5-0.1,0.7-0.6,0.6-1.1
		c-2.3-7.3-8-13.1-15.4-15.3c-0.5-0.1-1,0.1-1.1,0.6C22.3,10.3,22.5,10.7,23,10.9z"/>
	<path fill="#84979D" d="M24.2,4.4C34.4,6.8,42.2,15,44,25.3c0.1,0.4,0.4,0.7,0.9,0.7c0.1,0,0.1,0,0.2,0c0.5-0.1,0.8-0.5,0.7-1
		c-2-11-10.3-19.7-21.2-22.3c-0.5-0.1-0.9,0.2-1.1,0.7C23.4,3.8,23.7,4.3,24.2,4.4z"/>
</g>
</svg>
